G04 #@! TF.GenerationSoftware,KiCad,Pcbnew,(5.1.6)-1*
G04 #@! TF.CreationDate,2020-05-26T15:20:33+09:00*
G04 #@! TF.ProjectId,mic5332,6d696335-3333-4322-9e6b-696361645f70,rev?*
G04 #@! TF.SameCoordinates,Original*
G04 #@! TF.FileFunction,Copper,L1,Top*
G04 #@! TF.FilePolarity,Positive*
%FSLAX46Y46*%
G04 Gerber Fmt 4.6, Leading zero omitted, Abs format (unit mm)*
G04 Created by KiCad (PCBNEW (5.1.6)-1) date 2020-05-26 15:20:33*
%MOMM*%
%LPD*%
G01*
G04 APERTURE LIST*
G04 #@! TA.AperFunction,ComponentPad*
%ADD10C,1.400000*%
G04 #@! TD*
G04 #@! TA.AperFunction,SMDPad,CuDef*
%ADD11R,0.660400X1.244600*%
G04 #@! TD*
G04 #@! TA.AperFunction,SMDPad,CuDef*
%ADD12R,0.711200X0.203200*%
G04 #@! TD*
G04 #@! TA.AperFunction,ComponentPad*
%ADD13R,1.700000X1.700000*%
G04 #@! TD*
G04 #@! TA.AperFunction,ViaPad*
%ADD14C,0.400000*%
G04 #@! TD*
G04 #@! TA.AperFunction,ViaPad*
%ADD15C,0.800000*%
G04 #@! TD*
G04 #@! TA.AperFunction,Conductor*
%ADD16C,0.250000*%
G04 #@! TD*
G04 #@! TA.AperFunction,Conductor*
%ADD17C,0.254000*%
G04 #@! TD*
G04 APERTURE END LIST*
G04 #@! TA.AperFunction,SMDPad,CuDef*
G36*
G01*
X116337500Y-68575000D02*
X116812500Y-68575000D01*
G75*
G02*
X117050000Y-68812500I0J-237500D01*
G01*
X117050000Y-69387500D01*
G75*
G02*
X116812500Y-69625000I-237500J0D01*
G01*
X116337500Y-69625000D01*
G75*
G02*
X116100000Y-69387500I0J237500D01*
G01*
X116100000Y-68812500D01*
G75*
G02*
X116337500Y-68575000I237500J0D01*
G01*
G37*
G04 #@! TD.AperFunction*
G04 #@! TA.AperFunction,SMDPad,CuDef*
G36*
G01*
X116337500Y-70325000D02*
X116812500Y-70325000D01*
G75*
G02*
X117050000Y-70562500I0J-237500D01*
G01*
X117050000Y-71137500D01*
G75*
G02*
X116812500Y-71375000I-237500J0D01*
G01*
X116337500Y-71375000D01*
G75*
G02*
X116100000Y-71137500I0J237500D01*
G01*
X116100000Y-70562500D01*
G75*
G02*
X116337500Y-70325000I237500J0D01*
G01*
G37*
G04 #@! TD.AperFunction*
G04 #@! TA.AperFunction,SMDPad,CuDef*
G36*
G01*
X117852500Y-70330000D02*
X118327500Y-70330000D01*
G75*
G02*
X118565000Y-70567500I0J-237500D01*
G01*
X118565000Y-71142500D01*
G75*
G02*
X118327500Y-71380000I-237500J0D01*
G01*
X117852500Y-71380000D01*
G75*
G02*
X117615000Y-71142500I0J237500D01*
G01*
X117615000Y-70567500D01*
G75*
G02*
X117852500Y-70330000I237500J0D01*
G01*
G37*
G04 #@! TD.AperFunction*
G04 #@! TA.AperFunction,SMDPad,CuDef*
G36*
G01*
X117852500Y-68580000D02*
X118327500Y-68580000D01*
G75*
G02*
X118565000Y-68817500I0J-237500D01*
G01*
X118565000Y-69392500D01*
G75*
G02*
X118327500Y-69630000I-237500J0D01*
G01*
X117852500Y-69630000D01*
G75*
G02*
X117615000Y-69392500I0J237500D01*
G01*
X117615000Y-68817500D01*
G75*
G02*
X117852500Y-68580000I237500J0D01*
G01*
G37*
G04 #@! TD.AperFunction*
G04 #@! TA.AperFunction,SMDPad,CuDef*
G36*
G01*
X132672500Y-81380000D02*
X132327500Y-81380000D01*
G75*
G02*
X132180000Y-81232500I0J147500D01*
G01*
X132180000Y-80937500D01*
G75*
G02*
X132327500Y-80790000I147500J0D01*
G01*
X132672500Y-80790000D01*
G75*
G02*
X132820000Y-80937500I0J-147500D01*
G01*
X132820000Y-81232500D01*
G75*
G02*
X132672500Y-81380000I-147500J0D01*
G01*
G37*
G04 #@! TD.AperFunction*
G04 #@! TA.AperFunction,SMDPad,CuDef*
G36*
G01*
X132672500Y-80410000D02*
X132327500Y-80410000D01*
G75*
G02*
X132180000Y-80262500I0J147500D01*
G01*
X132180000Y-79967500D01*
G75*
G02*
X132327500Y-79820000I147500J0D01*
G01*
X132672500Y-79820000D01*
G75*
G02*
X132820000Y-79967500I0J-147500D01*
G01*
X132820000Y-80262500D01*
G75*
G02*
X132672500Y-80410000I-147500J0D01*
G01*
G37*
G04 #@! TD.AperFunction*
G04 #@! TA.AperFunction,SMDPad,CuDef*
G36*
G01*
X130392500Y-76625000D02*
X130867500Y-76625000D01*
G75*
G02*
X131105000Y-76862500I0J-237500D01*
G01*
X131105000Y-77437500D01*
G75*
G02*
X130867500Y-77675000I-237500J0D01*
G01*
X130392500Y-77675000D01*
G75*
G02*
X130155000Y-77437500I0J237500D01*
G01*
X130155000Y-76862500D01*
G75*
G02*
X130392500Y-76625000I237500J0D01*
G01*
G37*
G04 #@! TD.AperFunction*
G04 #@! TA.AperFunction,SMDPad,CuDef*
G36*
G01*
X130392500Y-74875000D02*
X130867500Y-74875000D01*
G75*
G02*
X131105000Y-75112500I0J-237500D01*
G01*
X131105000Y-75687500D01*
G75*
G02*
X130867500Y-75925000I-237500J0D01*
G01*
X130392500Y-75925000D01*
G75*
G02*
X130155000Y-75687500I0J237500D01*
G01*
X130155000Y-75112500D01*
G75*
G02*
X130392500Y-74875000I237500J0D01*
G01*
G37*
G04 #@! TD.AperFunction*
G04 #@! TA.AperFunction,SMDPad,CuDef*
G36*
G01*
X131902500Y-74875000D02*
X132377500Y-74875000D01*
G75*
G02*
X132615000Y-75112500I0J-237500D01*
G01*
X132615000Y-75687500D01*
G75*
G02*
X132377500Y-75925000I-237500J0D01*
G01*
X131902500Y-75925000D01*
G75*
G02*
X131665000Y-75687500I0J237500D01*
G01*
X131665000Y-75112500D01*
G75*
G02*
X131902500Y-74875000I237500J0D01*
G01*
G37*
G04 #@! TD.AperFunction*
G04 #@! TA.AperFunction,SMDPad,CuDef*
G36*
G01*
X131902500Y-76625000D02*
X132377500Y-76625000D01*
G75*
G02*
X132615000Y-76862500I0J-237500D01*
G01*
X132615000Y-77437500D01*
G75*
G02*
X132377500Y-77675000I-237500J0D01*
G01*
X131902500Y-77675000D01*
G75*
G02*
X131665000Y-77437500I0J237500D01*
G01*
X131665000Y-76862500D01*
G75*
G02*
X131902500Y-76625000I237500J0D01*
G01*
G37*
G04 #@! TD.AperFunction*
G04 #@! TA.AperFunction,SMDPad,CuDef*
G36*
G01*
X133419999Y-76830000D02*
X134320001Y-76830000D01*
G75*
G02*
X134570000Y-77079999I0J-249999D01*
G01*
X134570000Y-77730001D01*
G75*
G02*
X134320001Y-77980000I-249999J0D01*
G01*
X133419999Y-77980000D01*
G75*
G02*
X133170000Y-77730001I0J249999D01*
G01*
X133170000Y-77079999D01*
G75*
G02*
X133419999Y-76830000I249999J0D01*
G01*
G37*
G04 #@! TD.AperFunction*
G04 #@! TA.AperFunction,SMDPad,CuDef*
G36*
G01*
X133419999Y-74780000D02*
X134320001Y-74780000D01*
G75*
G02*
X134570000Y-75029999I0J-249999D01*
G01*
X134570000Y-75680001D01*
G75*
G02*
X134320001Y-75930000I-249999J0D01*
G01*
X133419999Y-75930000D01*
G75*
G02*
X133170000Y-75680001I0J249999D01*
G01*
X133170000Y-75029999D01*
G75*
G02*
X133419999Y-74780000I249999J0D01*
G01*
G37*
G04 #@! TD.AperFunction*
G04 #@! TA.AperFunction,SMDPad,CuDef*
G36*
G01*
X129077500Y-68690000D02*
X128602500Y-68690000D01*
G75*
G02*
X128365000Y-68452500I0J237500D01*
G01*
X128365000Y-67877500D01*
G75*
G02*
X128602500Y-67640000I237500J0D01*
G01*
X129077500Y-67640000D01*
G75*
G02*
X129315000Y-67877500I0J-237500D01*
G01*
X129315000Y-68452500D01*
G75*
G02*
X129077500Y-68690000I-237500J0D01*
G01*
G37*
G04 #@! TD.AperFunction*
G04 #@! TA.AperFunction,SMDPad,CuDef*
G36*
G01*
X129077500Y-70440000D02*
X128602500Y-70440000D01*
G75*
G02*
X128365000Y-70202500I0J237500D01*
G01*
X128365000Y-69627500D01*
G75*
G02*
X128602500Y-69390000I237500J0D01*
G01*
X129077500Y-69390000D01*
G75*
G02*
X129315000Y-69627500I0J-237500D01*
G01*
X129315000Y-70202500D01*
G75*
G02*
X129077500Y-70440000I-237500J0D01*
G01*
G37*
G04 #@! TD.AperFunction*
G04 #@! TA.AperFunction,SMDPad,CuDef*
G36*
G01*
X130587500Y-70440000D02*
X130112500Y-70440000D01*
G75*
G02*
X129875000Y-70202500I0J237500D01*
G01*
X129875000Y-69627500D01*
G75*
G02*
X130112500Y-69390000I237500J0D01*
G01*
X130587500Y-69390000D01*
G75*
G02*
X130825000Y-69627500I0J-237500D01*
G01*
X130825000Y-70202500D01*
G75*
G02*
X130587500Y-70440000I-237500J0D01*
G01*
G37*
G04 #@! TD.AperFunction*
G04 #@! TA.AperFunction,SMDPad,CuDef*
G36*
G01*
X130587500Y-68690000D02*
X130112500Y-68690000D01*
G75*
G02*
X129875000Y-68452500I0J237500D01*
G01*
X129875000Y-67877500D01*
G75*
G02*
X130112500Y-67640000I237500J0D01*
G01*
X130587500Y-67640000D01*
G75*
G02*
X130825000Y-67877500I0J-237500D01*
G01*
X130825000Y-68452500D01*
G75*
G02*
X130587500Y-68690000I-237500J0D01*
G01*
G37*
G04 #@! TD.AperFunction*
G04 #@! TA.AperFunction,SMDPad,CuDef*
G36*
G01*
X132530001Y-70650000D02*
X131629999Y-70650000D01*
G75*
G02*
X131380000Y-70400001I0J249999D01*
G01*
X131380000Y-69749999D01*
G75*
G02*
X131629999Y-69500000I249999J0D01*
G01*
X132530001Y-69500000D01*
G75*
G02*
X132780000Y-69749999I0J-249999D01*
G01*
X132780000Y-70400001D01*
G75*
G02*
X132530001Y-70650000I-249999J0D01*
G01*
G37*
G04 #@! TD.AperFunction*
G04 #@! TA.AperFunction,SMDPad,CuDef*
G36*
G01*
X132530001Y-68600000D02*
X131629999Y-68600000D01*
G75*
G02*
X131380000Y-68350001I0J249999D01*
G01*
X131380000Y-67699999D01*
G75*
G02*
X131629999Y-67450000I249999J0D01*
G01*
X132530001Y-67450000D01*
G75*
G02*
X132780000Y-67699999I0J-249999D01*
G01*
X132780000Y-68350001D01*
G75*
G02*
X132530001Y-68600000I-249999J0D01*
G01*
G37*
G04 #@! TD.AperFunction*
G04 #@! TA.AperFunction,SMDPad,CuDef*
G36*
G01*
X119300000Y-77057500D02*
X119300000Y-76582500D01*
G75*
G02*
X119537500Y-76345000I237500J0D01*
G01*
X120112500Y-76345000D01*
G75*
G02*
X120350000Y-76582500I0J-237500D01*
G01*
X120350000Y-77057500D01*
G75*
G02*
X120112500Y-77295000I-237500J0D01*
G01*
X119537500Y-77295000D01*
G75*
G02*
X119300000Y-77057500I0J237500D01*
G01*
G37*
G04 #@! TD.AperFunction*
G04 #@! TA.AperFunction,SMDPad,CuDef*
G36*
G01*
X121050000Y-77057500D02*
X121050000Y-76582500D01*
G75*
G02*
X121287500Y-76345000I237500J0D01*
G01*
X121862500Y-76345000D01*
G75*
G02*
X122100000Y-76582500I0J-237500D01*
G01*
X122100000Y-77057500D01*
G75*
G02*
X121862500Y-77295000I-237500J0D01*
G01*
X121287500Y-77295000D01*
G75*
G02*
X121050000Y-77057500I0J237500D01*
G01*
G37*
G04 #@! TD.AperFunction*
D10*
X127650000Y-84050000D03*
X130190000Y-84050000D03*
X123690000Y-84050000D03*
X121150000Y-84050000D03*
G04 #@! TA.AperFunction,SMDPad,CuDef*
G36*
G01*
X127750000Y-80937500D02*
X127750000Y-80462500D01*
G75*
G02*
X127987500Y-80225000I237500J0D01*
G01*
X128562500Y-80225000D01*
G75*
G02*
X128800000Y-80462500I0J-237500D01*
G01*
X128800000Y-80937500D01*
G75*
G02*
X128562500Y-81175000I-237500J0D01*
G01*
X127987500Y-81175000D01*
G75*
G02*
X127750000Y-80937500I0J237500D01*
G01*
G37*
G04 #@! TD.AperFunction*
G04 #@! TA.AperFunction,SMDPad,CuDef*
G36*
G01*
X126000000Y-80937500D02*
X126000000Y-80462500D01*
G75*
G02*
X126237500Y-80225000I237500J0D01*
G01*
X126812500Y-80225000D01*
G75*
G02*
X127050000Y-80462500I0J-237500D01*
G01*
X127050000Y-80937500D01*
G75*
G02*
X126812500Y-81175000I-237500J0D01*
G01*
X126237500Y-81175000D01*
G75*
G02*
X126000000Y-80937500I0J237500D01*
G01*
G37*
G04 #@! TD.AperFunction*
G04 #@! TA.AperFunction,SMDPad,CuDef*
G36*
G01*
X121100000Y-80937500D02*
X121100000Y-80462500D01*
G75*
G02*
X121337500Y-80225000I237500J0D01*
G01*
X121912500Y-80225000D01*
G75*
G02*
X122150000Y-80462500I0J-237500D01*
G01*
X122150000Y-80937500D01*
G75*
G02*
X121912500Y-81175000I-237500J0D01*
G01*
X121337500Y-81175000D01*
G75*
G02*
X121100000Y-80937500I0J237500D01*
G01*
G37*
G04 #@! TD.AperFunction*
G04 #@! TA.AperFunction,SMDPad,CuDef*
G36*
G01*
X122850000Y-80937500D02*
X122850000Y-80462500D01*
G75*
G02*
X123087500Y-80225000I237500J0D01*
G01*
X123662500Y-80225000D01*
G75*
G02*
X123900000Y-80462500I0J-237500D01*
G01*
X123900000Y-80937500D01*
G75*
G02*
X123662500Y-81175000I-237500J0D01*
G01*
X123087500Y-81175000D01*
G75*
G02*
X122850000Y-80937500I0J237500D01*
G01*
G37*
G04 #@! TD.AperFunction*
G04 #@! TA.AperFunction,SMDPad,CuDef*
G36*
G01*
X122110000Y-73542500D02*
X122110000Y-74017500D01*
G75*
G02*
X121872500Y-74255000I-237500J0D01*
G01*
X121297500Y-74255000D01*
G75*
G02*
X121060000Y-74017500I0J237500D01*
G01*
X121060000Y-73542500D01*
G75*
G02*
X121297500Y-73305000I237500J0D01*
G01*
X121872500Y-73305000D01*
G75*
G02*
X122110000Y-73542500I0J-237500D01*
G01*
G37*
G04 #@! TD.AperFunction*
G04 #@! TA.AperFunction,SMDPad,CuDef*
G36*
G01*
X120360000Y-73542500D02*
X120360000Y-74017500D01*
G75*
G02*
X120122500Y-74255000I-237500J0D01*
G01*
X119547500Y-74255000D01*
G75*
G02*
X119310000Y-74017500I0J237500D01*
G01*
X119310000Y-73542500D01*
G75*
G02*
X119547500Y-73305000I237500J0D01*
G01*
X120122500Y-73305000D01*
G75*
G02*
X120360000Y-73542500I0J-237500D01*
G01*
G37*
G04 #@! TD.AperFunction*
G04 #@! TA.AperFunction,SMDPad,CuDef*
G36*
G01*
X121050000Y-75537500D02*
X121050000Y-75062500D01*
G75*
G02*
X121287500Y-74825000I237500J0D01*
G01*
X121862500Y-74825000D01*
G75*
G02*
X122100000Y-75062500I0J-237500D01*
G01*
X122100000Y-75537500D01*
G75*
G02*
X121862500Y-75775000I-237500J0D01*
G01*
X121287500Y-75775000D01*
G75*
G02*
X121050000Y-75537500I0J237500D01*
G01*
G37*
G04 #@! TD.AperFunction*
G04 #@! TA.AperFunction,SMDPad,CuDef*
G36*
G01*
X119300000Y-75537500D02*
X119300000Y-75062500D01*
G75*
G02*
X119537500Y-74825000I237500J0D01*
G01*
X120112500Y-74825000D01*
G75*
G02*
X120350000Y-75062500I0J-237500D01*
G01*
X120350000Y-75537500D01*
G75*
G02*
X120112500Y-75775000I-237500J0D01*
G01*
X119537500Y-75775000D01*
G75*
G02*
X119300000Y-75537500I0J237500D01*
G01*
G37*
G04 #@! TD.AperFunction*
D11*
X126576400Y-75672400D03*
D12*
X127554300Y-74922399D03*
X127554300Y-75422400D03*
X127554300Y-75922400D03*
X127554300Y-76422401D03*
X125598500Y-76422401D03*
X125598500Y-75922400D03*
X125598500Y-75422400D03*
X125598500Y-74922399D03*
D13*
X111830000Y-68460000D03*
X130190000Y-87050000D03*
X121150000Y-87050000D03*
X111850000Y-73880000D03*
X137500000Y-78960000D03*
X111850000Y-78960000D03*
X137500000Y-68800000D03*
X137500000Y-73880000D03*
D14*
X126576400Y-75976400D03*
D15*
X133010000Y-65740000D03*
X128850000Y-65740000D03*
X131100000Y-81150000D03*
X128800000Y-76450000D03*
X120810000Y-70960000D03*
X121370000Y-79150000D03*
X126270000Y-79150000D03*
X127950000Y-77550000D03*
X124122400Y-75922400D03*
X121800000Y-72550000D03*
D16*
X132525000Y-77225000D02*
X133875000Y-77225000D01*
X125598500Y-75422400D02*
X126326400Y-75422400D01*
X126326400Y-75422400D02*
X126576400Y-75672400D01*
X132500000Y-77250000D02*
X132525000Y-77225000D01*
X132500000Y-80050000D02*
X132500000Y-77250000D01*
X126576400Y-75672400D02*
X126576400Y-75976400D01*
X126576400Y-75976400D02*
X126600000Y-76000000D01*
X126600000Y-76000000D02*
X126600000Y-77700000D01*
X126600000Y-77700000D02*
X127300000Y-78400000D01*
X127300000Y-78400000D02*
X128850000Y-78400000D01*
X130025000Y-77225000D02*
X131175000Y-77225000D01*
X128850000Y-78400000D02*
X130025000Y-77225000D01*
X131175000Y-77225000D02*
X132525000Y-77225000D01*
X126576400Y-75976400D02*
X126576400Y-75976400D01*
X113996777Y-70925000D02*
X117300000Y-70925000D01*
X111850000Y-73071777D02*
X113996777Y-70925000D01*
X117300000Y-70925000D02*
X117925000Y-70925000D01*
X111850000Y-73880000D02*
X111850000Y-73071777D01*
X135765000Y-77225000D02*
X137500000Y-78960000D01*
X133875000Y-77225000D02*
X135765000Y-77225000D01*
X126576400Y-74800100D02*
X126570000Y-74793700D01*
X126576400Y-75672400D02*
X126576400Y-74800100D01*
X126570000Y-74793700D02*
X126570000Y-68570000D01*
X127040000Y-68100000D02*
X129050000Y-68100000D01*
X126570000Y-68570000D02*
X127040000Y-68100000D01*
X119600000Y-77450000D02*
X118820000Y-78230000D01*
X119600000Y-76750000D02*
X119600000Y-77450000D01*
X116200000Y-78230000D02*
X111850000Y-73880000D01*
X118820000Y-78230000D02*
X116200000Y-78230000D01*
X127554300Y-75922400D02*
X128272400Y-75922400D01*
X128272400Y-75922400D02*
X128800000Y-76450000D01*
X128800000Y-76450000D02*
X128800000Y-76450000D01*
X131100000Y-81150000D02*
X132500000Y-81150000D01*
X128800000Y-76450000D02*
X128800000Y-76450000D01*
X127554300Y-75422400D02*
X131077600Y-75422400D01*
X131077600Y-75422400D02*
X131175000Y-75325000D01*
X131175000Y-75325000D02*
X133875000Y-75325000D01*
X127554300Y-74922399D02*
X127554300Y-71495700D01*
X127554300Y-71495700D02*
X129050000Y-70000000D01*
X129050000Y-70000000D02*
X130400000Y-70000000D01*
X130400000Y-70000000D02*
X131750000Y-70000000D01*
X129050000Y-70000000D02*
X129050000Y-70850000D01*
X130400000Y-70850000D02*
X130430000Y-70880000D01*
X130400000Y-70000000D02*
X130400000Y-70850000D01*
X131750000Y-70000000D02*
X131750000Y-70850000D01*
X131750000Y-70850000D02*
X131750000Y-71040000D01*
X131750000Y-71040000D02*
X131580000Y-71210000D01*
X121800000Y-75300000D02*
X121800000Y-76750000D01*
X119600000Y-75300000D02*
X119600000Y-73850000D01*
X116575000Y-69025000D02*
X117925000Y-69025000D01*
X117925000Y-69025000D02*
X118550000Y-69025000D01*
X118550000Y-69025000D02*
X118625000Y-69100000D01*
X117800000Y-69100000D02*
X119500000Y-69100000D01*
X119500000Y-69100000D02*
X119600000Y-69200000D01*
X119500000Y-69100000D02*
X122050000Y-69100000D01*
X125598500Y-72648500D02*
X125598500Y-74922399D01*
X122050000Y-69100000D02*
X125598500Y-72648500D01*
X120244315Y-70960000D02*
X119620000Y-70960000D01*
X120810000Y-70960000D02*
X120244315Y-70960000D01*
X119600000Y-69200000D02*
X119620000Y-70960000D01*
X119620000Y-70960000D02*
X119600000Y-73850000D01*
X126270000Y-80670000D02*
X126300000Y-80700000D01*
X126270000Y-79150000D02*
X126270000Y-80670000D01*
X121370000Y-80670000D02*
X121400000Y-80700000D01*
X121370000Y-79150000D02*
X121370000Y-80670000D01*
X111830000Y-68460000D02*
X115050000Y-68460000D01*
X115690000Y-69100000D02*
X116575000Y-69100000D01*
X115050000Y-68460000D02*
X115690000Y-69100000D01*
X125598500Y-74922399D02*
X124692399Y-74922399D01*
X127554300Y-76422401D02*
X127554300Y-77154300D01*
X127554300Y-77154300D02*
X127950000Y-77550000D01*
X127950000Y-77550000D02*
X127950000Y-77550000D01*
X130190000Y-81140000D02*
X130190000Y-84050000D01*
X128500000Y-80700000D02*
X129750000Y-80700000D01*
X129750000Y-80700000D02*
X130190000Y-81140000D01*
X123600000Y-77815301D02*
X123600000Y-80700000D01*
X125598500Y-76422401D02*
X124992900Y-76422401D01*
X124992900Y-76422401D02*
X123600000Y-77815301D01*
X123600000Y-83960000D02*
X123690000Y-84050000D01*
X123600000Y-80700000D02*
X123600000Y-83960000D01*
X125598500Y-75922400D02*
X124122400Y-75922400D01*
X124122400Y-75922400D02*
X124122400Y-75922400D01*
X121800000Y-73850000D02*
X121800000Y-72550000D01*
X121800000Y-72550000D02*
X121800000Y-72550000D01*
D17*
G36*
X139040001Y-75683000D02*
G01*
X135205449Y-75683000D01*
X135205000Y-75640750D01*
X135046250Y-75482000D01*
X133997000Y-75482000D01*
X133997000Y-75502000D01*
X133743000Y-75502000D01*
X133743000Y-75482000D01*
X132693750Y-75482000D01*
X132648750Y-75527000D01*
X132267000Y-75527000D01*
X132267000Y-75547000D01*
X132013000Y-75547000D01*
X132013000Y-75527000D01*
X130757000Y-75527000D01*
X130757000Y-75547000D01*
X130503000Y-75547000D01*
X130503000Y-75527000D01*
X129678750Y-75527000D01*
X129522750Y-75683000D01*
X129496711Y-75683000D01*
X129459774Y-75646063D01*
X129290256Y-75532795D01*
X129101898Y-75454774D01*
X128901939Y-75415000D01*
X128839801Y-75415000D01*
X128836203Y-75411402D01*
X128812401Y-75382399D01*
X128721669Y-75307937D01*
X129154606Y-74875000D01*
X129516928Y-74875000D01*
X129520000Y-75114250D01*
X129678750Y-75273000D01*
X130503000Y-75273000D01*
X130503000Y-74398750D01*
X130757000Y-74398750D01*
X130757000Y-75273000D01*
X132013000Y-75273000D01*
X132013000Y-74398750D01*
X132267000Y-74398750D01*
X132267000Y-75273000D01*
X133091250Y-75273000D01*
X133136250Y-75228000D01*
X133743000Y-75228000D01*
X133743000Y-74303750D01*
X133997000Y-74303750D01*
X133997000Y-75228000D01*
X135046250Y-75228000D01*
X135205000Y-75069250D01*
X135208072Y-74780000D01*
X135203148Y-74730000D01*
X136011928Y-74730000D01*
X136024188Y-74854482D01*
X136060498Y-74974180D01*
X136119463Y-75084494D01*
X136198815Y-75181185D01*
X136295506Y-75260537D01*
X136405820Y-75319502D01*
X136525518Y-75355812D01*
X136650000Y-75368072D01*
X137214250Y-75365000D01*
X137373000Y-75206250D01*
X137373000Y-74007000D01*
X137627000Y-74007000D01*
X137627000Y-75206250D01*
X137785750Y-75365000D01*
X138350000Y-75368072D01*
X138474482Y-75355812D01*
X138594180Y-75319502D01*
X138704494Y-75260537D01*
X138801185Y-75181185D01*
X138880537Y-75084494D01*
X138939502Y-74974180D01*
X138975812Y-74854482D01*
X138988072Y-74730000D01*
X138985000Y-74165750D01*
X138826250Y-74007000D01*
X137627000Y-74007000D01*
X137373000Y-74007000D01*
X136173750Y-74007000D01*
X136015000Y-74165750D01*
X136011928Y-74730000D01*
X135203148Y-74730000D01*
X135195812Y-74655518D01*
X135159502Y-74535820D01*
X135100537Y-74425506D01*
X135021185Y-74328815D01*
X134924494Y-74249463D01*
X134814180Y-74190498D01*
X134694482Y-74154188D01*
X134570000Y-74141928D01*
X134155750Y-74145000D01*
X133997000Y-74303750D01*
X133743000Y-74303750D01*
X133584250Y-74145000D01*
X133170000Y-74141928D01*
X133045518Y-74154188D01*
X132925820Y-74190498D01*
X132815506Y-74249463D01*
X132795234Y-74266100D01*
X132739482Y-74249188D01*
X132615000Y-74236928D01*
X132425750Y-74240000D01*
X132267000Y-74398750D01*
X132013000Y-74398750D01*
X131854250Y-74240000D01*
X131665000Y-74236928D01*
X131540518Y-74249188D01*
X131420820Y-74285498D01*
X131385000Y-74304644D01*
X131349180Y-74285498D01*
X131229482Y-74249188D01*
X131105000Y-74236928D01*
X130915750Y-74240000D01*
X130757000Y-74398750D01*
X130503000Y-74398750D01*
X130344250Y-74240000D01*
X130155000Y-74236928D01*
X130030518Y-74249188D01*
X129910820Y-74285498D01*
X129800506Y-74344463D01*
X129703815Y-74423815D01*
X129624463Y-74520506D01*
X129565498Y-74630820D01*
X129529188Y-74750518D01*
X129516928Y-74875000D01*
X129154606Y-74875000D01*
X130999606Y-73030000D01*
X136011928Y-73030000D01*
X136015000Y-73594250D01*
X136173750Y-73753000D01*
X137373000Y-73753000D01*
X137373000Y-72553750D01*
X137627000Y-72553750D01*
X137627000Y-73753000D01*
X138826250Y-73753000D01*
X138985000Y-73594250D01*
X138988072Y-73030000D01*
X138975812Y-72905518D01*
X138939502Y-72785820D01*
X138880537Y-72675506D01*
X138801185Y-72578815D01*
X138704494Y-72499463D01*
X138594180Y-72440498D01*
X138474482Y-72404188D01*
X138350000Y-72391928D01*
X137785750Y-72395000D01*
X137627000Y-72553750D01*
X137373000Y-72553750D01*
X137214250Y-72395000D01*
X136650000Y-72391928D01*
X136525518Y-72404188D01*
X136405820Y-72440498D01*
X136295506Y-72499463D01*
X136198815Y-72578815D01*
X136119463Y-72675506D01*
X136060498Y-72785820D01*
X136024188Y-72905518D01*
X136011928Y-73030000D01*
X130999606Y-73030000D01*
X131802606Y-72227000D01*
X139040001Y-72227000D01*
X139040001Y-75683000D01*
G37*
X139040001Y-75683000D02*
X135205449Y-75683000D01*
X135205000Y-75640750D01*
X135046250Y-75482000D01*
X133997000Y-75482000D01*
X133997000Y-75502000D01*
X133743000Y-75502000D01*
X133743000Y-75482000D01*
X132693750Y-75482000D01*
X132648750Y-75527000D01*
X132267000Y-75527000D01*
X132267000Y-75547000D01*
X132013000Y-75547000D01*
X132013000Y-75527000D01*
X130757000Y-75527000D01*
X130757000Y-75547000D01*
X130503000Y-75547000D01*
X130503000Y-75527000D01*
X129678750Y-75527000D01*
X129522750Y-75683000D01*
X129496711Y-75683000D01*
X129459774Y-75646063D01*
X129290256Y-75532795D01*
X129101898Y-75454774D01*
X128901939Y-75415000D01*
X128839801Y-75415000D01*
X128836203Y-75411402D01*
X128812401Y-75382399D01*
X128721669Y-75307937D01*
X129154606Y-74875000D01*
X129516928Y-74875000D01*
X129520000Y-75114250D01*
X129678750Y-75273000D01*
X130503000Y-75273000D01*
X130503000Y-74398750D01*
X130757000Y-74398750D01*
X130757000Y-75273000D01*
X132013000Y-75273000D01*
X132013000Y-74398750D01*
X132267000Y-74398750D01*
X132267000Y-75273000D01*
X133091250Y-75273000D01*
X133136250Y-75228000D01*
X133743000Y-75228000D01*
X133743000Y-74303750D01*
X133997000Y-74303750D01*
X133997000Y-75228000D01*
X135046250Y-75228000D01*
X135205000Y-75069250D01*
X135208072Y-74780000D01*
X135203148Y-74730000D01*
X136011928Y-74730000D01*
X136024188Y-74854482D01*
X136060498Y-74974180D01*
X136119463Y-75084494D01*
X136198815Y-75181185D01*
X136295506Y-75260537D01*
X136405820Y-75319502D01*
X136525518Y-75355812D01*
X136650000Y-75368072D01*
X137214250Y-75365000D01*
X137373000Y-75206250D01*
X137373000Y-74007000D01*
X137627000Y-74007000D01*
X137627000Y-75206250D01*
X137785750Y-75365000D01*
X138350000Y-75368072D01*
X138474482Y-75355812D01*
X138594180Y-75319502D01*
X138704494Y-75260537D01*
X138801185Y-75181185D01*
X138880537Y-75084494D01*
X138939502Y-74974180D01*
X138975812Y-74854482D01*
X138988072Y-74730000D01*
X138985000Y-74165750D01*
X138826250Y-74007000D01*
X137627000Y-74007000D01*
X137373000Y-74007000D01*
X136173750Y-74007000D01*
X136015000Y-74165750D01*
X136011928Y-74730000D01*
X135203148Y-74730000D01*
X135195812Y-74655518D01*
X135159502Y-74535820D01*
X135100537Y-74425506D01*
X135021185Y-74328815D01*
X134924494Y-74249463D01*
X134814180Y-74190498D01*
X134694482Y-74154188D01*
X134570000Y-74141928D01*
X134155750Y-74145000D01*
X133997000Y-74303750D01*
X133743000Y-74303750D01*
X133584250Y-74145000D01*
X133170000Y-74141928D01*
X133045518Y-74154188D01*
X132925820Y-74190498D01*
X132815506Y-74249463D01*
X132795234Y-74266100D01*
X132739482Y-74249188D01*
X132615000Y-74236928D01*
X132425750Y-74240000D01*
X132267000Y-74398750D01*
X132013000Y-74398750D01*
X131854250Y-74240000D01*
X131665000Y-74236928D01*
X131540518Y-74249188D01*
X131420820Y-74285498D01*
X131385000Y-74304644D01*
X131349180Y-74285498D01*
X131229482Y-74249188D01*
X131105000Y-74236928D01*
X130915750Y-74240000D01*
X130757000Y-74398750D01*
X130503000Y-74398750D01*
X130344250Y-74240000D01*
X130155000Y-74236928D01*
X130030518Y-74249188D01*
X129910820Y-74285498D01*
X129800506Y-74344463D01*
X129703815Y-74423815D01*
X129624463Y-74520506D01*
X129565498Y-74630820D01*
X129529188Y-74750518D01*
X129516928Y-74875000D01*
X129154606Y-74875000D01*
X130999606Y-73030000D01*
X136011928Y-73030000D01*
X136015000Y-73594250D01*
X136173750Y-73753000D01*
X137373000Y-73753000D01*
X137373000Y-72553750D01*
X137627000Y-72553750D01*
X137627000Y-73753000D01*
X138826250Y-73753000D01*
X138985000Y-73594250D01*
X138988072Y-73030000D01*
X138975812Y-72905518D01*
X138939502Y-72785820D01*
X138880537Y-72675506D01*
X138801185Y-72578815D01*
X138704494Y-72499463D01*
X138594180Y-72440498D01*
X138474482Y-72404188D01*
X138350000Y-72391928D01*
X137785750Y-72395000D01*
X137627000Y-72553750D01*
X137373000Y-72553750D01*
X137214250Y-72395000D01*
X136650000Y-72391928D01*
X136525518Y-72404188D01*
X136405820Y-72440498D01*
X136295506Y-72499463D01*
X136198815Y-72578815D01*
X136119463Y-72675506D01*
X136060498Y-72785820D01*
X136024188Y-72905518D01*
X136011928Y-73030000D01*
X130999606Y-73030000D01*
X131802606Y-72227000D01*
X139040001Y-72227000D01*
X139040001Y-75683000D01*
G36*
X127913815Y-70891185D02*
G01*
X128010506Y-70970537D01*
X128120820Y-71029502D01*
X128240518Y-71065812D01*
X128365000Y-71078072D01*
X128554250Y-71075000D01*
X128713000Y-70916250D01*
X128713000Y-70837000D01*
X128967000Y-70837000D01*
X128967000Y-70916250D01*
X129125750Y-71075000D01*
X129315000Y-71078072D01*
X129439482Y-71065812D01*
X129559180Y-71029502D01*
X129595000Y-71010356D01*
X129630820Y-71029502D01*
X129750518Y-71065812D01*
X129875000Y-71078072D01*
X130064250Y-71075000D01*
X130223000Y-70916250D01*
X130223000Y-70837000D01*
X130477000Y-70837000D01*
X130477000Y-70916250D01*
X130635750Y-71075000D01*
X130825000Y-71078072D01*
X130903502Y-71070341D01*
X130928815Y-71101185D01*
X131025506Y-71180537D01*
X131135820Y-71239502D01*
X131255518Y-71275812D01*
X131380000Y-71288072D01*
X131503236Y-71287158D01*
X128387793Y-74402601D01*
X128341542Y-74350883D01*
X128241572Y-74275703D01*
X128128856Y-74221471D01*
X128007726Y-74190271D01*
X127882836Y-74183301D01*
X127840050Y-74185799D01*
X127681300Y-74344549D01*
X127681300Y-74662400D01*
X127516967Y-74662400D01*
X127427300Y-74671232D01*
X127427300Y-74344549D01*
X127357000Y-74274249D01*
X127357000Y-70837000D01*
X127869347Y-70837000D01*
X127913815Y-70891185D01*
G37*
X127913815Y-70891185D02*
X128010506Y-70970537D01*
X128120820Y-71029502D01*
X128240518Y-71065812D01*
X128365000Y-71078072D01*
X128554250Y-71075000D01*
X128713000Y-70916250D01*
X128713000Y-70837000D01*
X128967000Y-70837000D01*
X128967000Y-70916250D01*
X129125750Y-71075000D01*
X129315000Y-71078072D01*
X129439482Y-71065812D01*
X129559180Y-71029502D01*
X129595000Y-71010356D01*
X129630820Y-71029502D01*
X129750518Y-71065812D01*
X129875000Y-71078072D01*
X130064250Y-71075000D01*
X130223000Y-70916250D01*
X130223000Y-70837000D01*
X130477000Y-70837000D01*
X130477000Y-70916250D01*
X130635750Y-71075000D01*
X130825000Y-71078072D01*
X130903502Y-71070341D01*
X130928815Y-71101185D01*
X131025506Y-71180537D01*
X131135820Y-71239502D01*
X131255518Y-71275812D01*
X131380000Y-71288072D01*
X131503236Y-71287158D01*
X128387793Y-74402601D01*
X128341542Y-74350883D01*
X128241572Y-74275703D01*
X128128856Y-74221471D01*
X128007726Y-74190271D01*
X127882836Y-74183301D01*
X127840050Y-74185799D01*
X127681300Y-74344549D01*
X127681300Y-74662400D01*
X127516967Y-74662400D01*
X127427300Y-74671232D01*
X127427300Y-74344549D01*
X127357000Y-74274249D01*
X127357000Y-70837000D01*
X127869347Y-70837000D01*
X127913815Y-70891185D01*
G36*
X139040001Y-71063000D02*
G01*
X133262523Y-71063000D01*
X133310537Y-71004494D01*
X133369502Y-70894180D01*
X133405812Y-70774482D01*
X133418072Y-70650000D01*
X133415000Y-70360750D01*
X133256250Y-70202000D01*
X132207000Y-70202000D01*
X132207000Y-70222000D01*
X131953000Y-70222000D01*
X131953000Y-70202000D01*
X131933000Y-70202000D01*
X131933000Y-69948000D01*
X131953000Y-69948000D01*
X131953000Y-69928000D01*
X132207000Y-69928000D01*
X132207000Y-69948000D01*
X133256250Y-69948000D01*
X133415000Y-69789250D01*
X133416479Y-69650000D01*
X136011928Y-69650000D01*
X136024188Y-69774482D01*
X136060498Y-69894180D01*
X136119463Y-70004494D01*
X136198815Y-70101185D01*
X136295506Y-70180537D01*
X136405820Y-70239502D01*
X136525518Y-70275812D01*
X136650000Y-70288072D01*
X137214250Y-70285000D01*
X137373000Y-70126250D01*
X137373000Y-68927000D01*
X137627000Y-68927000D01*
X137627000Y-70126250D01*
X137785750Y-70285000D01*
X138350000Y-70288072D01*
X138474482Y-70275812D01*
X138594180Y-70239502D01*
X138704494Y-70180537D01*
X138801185Y-70101185D01*
X138880537Y-70004494D01*
X138939502Y-69894180D01*
X138975812Y-69774482D01*
X138988072Y-69650000D01*
X138985000Y-69085750D01*
X138826250Y-68927000D01*
X137627000Y-68927000D01*
X137373000Y-68927000D01*
X136173750Y-68927000D01*
X136015000Y-69085750D01*
X136011928Y-69650000D01*
X133416479Y-69650000D01*
X133417998Y-69507000D01*
X134070000Y-69507000D01*
X134094776Y-69504560D01*
X134118601Y-69497333D01*
X134140557Y-69485597D01*
X134159803Y-69469803D01*
X135679606Y-67950000D01*
X136011928Y-67950000D01*
X136015000Y-68514250D01*
X136173750Y-68673000D01*
X137373000Y-68673000D01*
X137373000Y-67473750D01*
X137627000Y-67473750D01*
X137627000Y-68673000D01*
X138826250Y-68673000D01*
X138985000Y-68514250D01*
X138988072Y-67950000D01*
X138975812Y-67825518D01*
X138939502Y-67705820D01*
X138880537Y-67595506D01*
X138801185Y-67498815D01*
X138704494Y-67419463D01*
X138594180Y-67360498D01*
X138474482Y-67324188D01*
X138350000Y-67311928D01*
X137785750Y-67315000D01*
X137627000Y-67473750D01*
X137373000Y-67473750D01*
X137214250Y-67315000D01*
X136650000Y-67311928D01*
X136525518Y-67324188D01*
X136405820Y-67360498D01*
X136295506Y-67419463D01*
X136198815Y-67498815D01*
X136119463Y-67595506D01*
X136060498Y-67705820D01*
X136024188Y-67825518D01*
X136011928Y-67950000D01*
X135679606Y-67950000D01*
X138769606Y-64860000D01*
X139040001Y-64860000D01*
X139040001Y-71063000D01*
G37*
X139040001Y-71063000D02*
X133262523Y-71063000D01*
X133310537Y-71004494D01*
X133369502Y-70894180D01*
X133405812Y-70774482D01*
X133418072Y-70650000D01*
X133415000Y-70360750D01*
X133256250Y-70202000D01*
X132207000Y-70202000D01*
X132207000Y-70222000D01*
X131953000Y-70222000D01*
X131953000Y-70202000D01*
X131933000Y-70202000D01*
X131933000Y-69948000D01*
X131953000Y-69948000D01*
X131953000Y-69928000D01*
X132207000Y-69928000D01*
X132207000Y-69948000D01*
X133256250Y-69948000D01*
X133415000Y-69789250D01*
X133416479Y-69650000D01*
X136011928Y-69650000D01*
X136024188Y-69774482D01*
X136060498Y-69894180D01*
X136119463Y-70004494D01*
X136198815Y-70101185D01*
X136295506Y-70180537D01*
X136405820Y-70239502D01*
X136525518Y-70275812D01*
X136650000Y-70288072D01*
X137214250Y-70285000D01*
X137373000Y-70126250D01*
X137373000Y-68927000D01*
X137627000Y-68927000D01*
X137627000Y-70126250D01*
X137785750Y-70285000D01*
X138350000Y-70288072D01*
X138474482Y-70275812D01*
X138594180Y-70239502D01*
X138704494Y-70180537D01*
X138801185Y-70101185D01*
X138880537Y-70004494D01*
X138939502Y-69894180D01*
X138975812Y-69774482D01*
X138988072Y-69650000D01*
X138985000Y-69085750D01*
X138826250Y-68927000D01*
X137627000Y-68927000D01*
X137373000Y-68927000D01*
X136173750Y-68927000D01*
X136015000Y-69085750D01*
X136011928Y-69650000D01*
X133416479Y-69650000D01*
X133417998Y-69507000D01*
X134070000Y-69507000D01*
X134094776Y-69504560D01*
X134118601Y-69497333D01*
X134140557Y-69485597D01*
X134159803Y-69469803D01*
X135679606Y-67950000D01*
X136011928Y-67950000D01*
X136015000Y-68514250D01*
X136173750Y-68673000D01*
X137373000Y-68673000D01*
X137373000Y-67473750D01*
X137627000Y-67473750D01*
X137627000Y-68673000D01*
X138826250Y-68673000D01*
X138985000Y-68514250D01*
X138988072Y-67950000D01*
X138975812Y-67825518D01*
X138939502Y-67705820D01*
X138880537Y-67595506D01*
X138801185Y-67498815D01*
X138704494Y-67419463D01*
X138594180Y-67360498D01*
X138474482Y-67324188D01*
X138350000Y-67311928D01*
X137785750Y-67315000D01*
X137627000Y-67473750D01*
X137373000Y-67473750D01*
X137214250Y-67315000D01*
X136650000Y-67311928D01*
X136525518Y-67324188D01*
X136405820Y-67360498D01*
X136295506Y-67419463D01*
X136198815Y-67498815D01*
X136119463Y-67595506D01*
X136060498Y-67705820D01*
X136024188Y-67825518D01*
X136011928Y-67950000D01*
X135679606Y-67950000D01*
X138769606Y-64860000D01*
X139040001Y-64860000D01*
X139040001Y-71063000D01*
G36*
X130623750Y-71063000D02*
G01*
X130477002Y-71063000D01*
X130477002Y-70916252D01*
X130623750Y-71063000D01*
G37*
X130623750Y-71063000D02*
X130477002Y-71063000D01*
X130477002Y-70916252D01*
X130623750Y-71063000D01*
G36*
X129113750Y-71063000D02*
G01*
X128967002Y-71063000D01*
X128967002Y-70916252D01*
X129113750Y-71063000D01*
G37*
X129113750Y-71063000D02*
X128967002Y-71063000D01*
X128967002Y-70916252D01*
X129113750Y-71063000D01*
G36*
X130222998Y-71063000D02*
G01*
X130076250Y-71063000D01*
X130222998Y-70916252D01*
X130222998Y-71063000D01*
G37*
X130222998Y-71063000D02*
X130076250Y-71063000D01*
X130222998Y-70916252D01*
X130222998Y-71063000D01*
G36*
X129630820Y-71029502D02*
G01*
X129741248Y-71063000D01*
X129448752Y-71063000D01*
X129559180Y-71029502D01*
X129595000Y-71010356D01*
X129630820Y-71029502D01*
G37*
X129630820Y-71029502D02*
X129741248Y-71063000D01*
X129448752Y-71063000D01*
X129559180Y-71029502D01*
X129595000Y-71010356D01*
X129630820Y-71029502D01*
G36*
X127730000Y-69629250D02*
G01*
X127888750Y-69788000D01*
X128713000Y-69788000D01*
X128713000Y-69768000D01*
X128967000Y-69768000D01*
X128967000Y-69788000D01*
X130223000Y-69788000D01*
X130223000Y-69768000D01*
X130477000Y-69768000D01*
X130477000Y-69788000D01*
X130497000Y-69788000D01*
X130497000Y-70042000D01*
X130477000Y-70042000D01*
X130477000Y-70062000D01*
X130223000Y-70062000D01*
X130223000Y-70042000D01*
X128967000Y-70042000D01*
X128967000Y-70062000D01*
X128713000Y-70062000D01*
X128713000Y-70042000D01*
X127888750Y-70042000D01*
X127730000Y-70200750D01*
X127726928Y-70440000D01*
X127739188Y-70564482D01*
X127775498Y-70684180D01*
X127834463Y-70794494D01*
X127913815Y-70891185D01*
X128010506Y-70970537D01*
X128120820Y-71029502D01*
X128231248Y-71063000D01*
X127357000Y-71063000D01*
X127357000Y-69507000D01*
X127728430Y-69507000D01*
X127730000Y-69629250D01*
G37*
X127730000Y-69629250D02*
X127888750Y-69788000D01*
X128713000Y-69788000D01*
X128713000Y-69768000D01*
X128967000Y-69768000D01*
X128967000Y-69788000D01*
X130223000Y-69788000D01*
X130223000Y-69768000D01*
X130477000Y-69768000D01*
X130477000Y-69788000D01*
X130497000Y-69788000D01*
X130497000Y-70042000D01*
X130477000Y-70042000D01*
X130477000Y-70062000D01*
X130223000Y-70062000D01*
X130223000Y-70042000D01*
X128967000Y-70042000D01*
X128967000Y-70062000D01*
X128713000Y-70062000D01*
X128713000Y-70042000D01*
X127888750Y-70042000D01*
X127730000Y-70200750D01*
X127726928Y-70440000D01*
X127739188Y-70564482D01*
X127775498Y-70684180D01*
X127834463Y-70794494D01*
X127913815Y-70891185D01*
X128010506Y-70970537D01*
X128120820Y-71029502D01*
X128231248Y-71063000D01*
X127357000Y-71063000D01*
X127357000Y-69507000D01*
X127728430Y-69507000D01*
X127730000Y-69629250D01*
G36*
X128712998Y-71063000D02*
G01*
X128566250Y-71063000D01*
X128712998Y-70916252D01*
X128712998Y-71063000D01*
G37*
X128712998Y-71063000D02*
X128566250Y-71063000D01*
X128712998Y-70916252D01*
X128712998Y-71063000D01*
G36*
X133577394Y-68413000D02*
G01*
X133416086Y-68413000D01*
X133415000Y-68310750D01*
X133256250Y-68152000D01*
X132207000Y-68152000D01*
X132207000Y-68172000D01*
X131953000Y-68172000D01*
X131953000Y-68152000D01*
X131933000Y-68152000D01*
X131933000Y-67898000D01*
X131953000Y-67898000D01*
X131953000Y-66973750D01*
X132207000Y-66973750D01*
X132207000Y-67898000D01*
X133256250Y-67898000D01*
X133415000Y-67739250D01*
X133418072Y-67450000D01*
X133405812Y-67325518D01*
X133369502Y-67205820D01*
X133310537Y-67095506D01*
X133231185Y-66998815D01*
X133134494Y-66919463D01*
X133024180Y-66860498D01*
X132904482Y-66824188D01*
X132780000Y-66811928D01*
X132365750Y-66815000D01*
X132207000Y-66973750D01*
X131953000Y-66973750D01*
X131794250Y-66815000D01*
X131380000Y-66811928D01*
X131255518Y-66824188D01*
X131135820Y-66860498D01*
X131025506Y-66919463D01*
X130928815Y-66998815D01*
X130918688Y-67011155D01*
X130825000Y-67001928D01*
X130635750Y-67005000D01*
X130477000Y-67163750D01*
X130477000Y-68038000D01*
X130497000Y-68038000D01*
X130497000Y-68292000D01*
X130477000Y-68292000D01*
X130477000Y-68312000D01*
X130223000Y-68312000D01*
X130223000Y-68292000D01*
X128967000Y-68292000D01*
X128967000Y-68312000D01*
X128713000Y-68312000D01*
X128713000Y-68292000D01*
X127888750Y-68292000D01*
X127767750Y-68413000D01*
X126747000Y-68413000D01*
X126747000Y-67640000D01*
X127726928Y-67640000D01*
X127730000Y-67879250D01*
X127888750Y-68038000D01*
X128713000Y-68038000D01*
X128713000Y-67163750D01*
X128967000Y-67163750D01*
X128967000Y-68038000D01*
X130223000Y-68038000D01*
X130223000Y-67163750D01*
X130064250Y-67005000D01*
X129875000Y-67001928D01*
X129750518Y-67014188D01*
X129630820Y-67050498D01*
X129595000Y-67069644D01*
X129559180Y-67050498D01*
X129439482Y-67014188D01*
X129315000Y-67001928D01*
X129125750Y-67005000D01*
X128967000Y-67163750D01*
X128713000Y-67163750D01*
X128554250Y-67005000D01*
X128365000Y-67001928D01*
X128240518Y-67014188D01*
X128120820Y-67050498D01*
X128010506Y-67109463D01*
X127913815Y-67188815D01*
X127834463Y-67285506D01*
X127775498Y-67395820D01*
X127739188Y-67515518D01*
X127726928Y-67640000D01*
X126747000Y-67640000D01*
X126747000Y-64860000D01*
X137130394Y-64860000D01*
X133577394Y-68413000D01*
G37*
X133577394Y-68413000D02*
X133416086Y-68413000D01*
X133415000Y-68310750D01*
X133256250Y-68152000D01*
X132207000Y-68152000D01*
X132207000Y-68172000D01*
X131953000Y-68172000D01*
X131953000Y-68152000D01*
X131933000Y-68152000D01*
X131933000Y-67898000D01*
X131953000Y-67898000D01*
X131953000Y-66973750D01*
X132207000Y-66973750D01*
X132207000Y-67898000D01*
X133256250Y-67898000D01*
X133415000Y-67739250D01*
X133418072Y-67450000D01*
X133405812Y-67325518D01*
X133369502Y-67205820D01*
X133310537Y-67095506D01*
X133231185Y-66998815D01*
X133134494Y-66919463D01*
X133024180Y-66860498D01*
X132904482Y-66824188D01*
X132780000Y-66811928D01*
X132365750Y-66815000D01*
X132207000Y-66973750D01*
X131953000Y-66973750D01*
X131794250Y-66815000D01*
X131380000Y-66811928D01*
X131255518Y-66824188D01*
X131135820Y-66860498D01*
X131025506Y-66919463D01*
X130928815Y-66998815D01*
X130918688Y-67011155D01*
X130825000Y-67001928D01*
X130635750Y-67005000D01*
X130477000Y-67163750D01*
X130477000Y-68038000D01*
X130497000Y-68038000D01*
X130497000Y-68292000D01*
X130477000Y-68292000D01*
X130477000Y-68312000D01*
X130223000Y-68312000D01*
X130223000Y-68292000D01*
X128967000Y-68292000D01*
X128967000Y-68312000D01*
X128713000Y-68312000D01*
X128713000Y-68292000D01*
X127888750Y-68292000D01*
X127767750Y-68413000D01*
X126747000Y-68413000D01*
X126747000Y-67640000D01*
X127726928Y-67640000D01*
X127730000Y-67879250D01*
X127888750Y-68038000D01*
X128713000Y-68038000D01*
X128713000Y-67163750D01*
X128967000Y-67163750D01*
X128967000Y-68038000D01*
X130223000Y-68038000D01*
X130223000Y-67163750D01*
X130064250Y-67005000D01*
X129875000Y-67001928D01*
X129750518Y-67014188D01*
X129630820Y-67050498D01*
X129595000Y-67069644D01*
X129559180Y-67050498D01*
X129439482Y-67014188D01*
X129315000Y-67001928D01*
X129125750Y-67005000D01*
X128967000Y-67163750D01*
X128713000Y-67163750D01*
X128554250Y-67005000D01*
X128365000Y-67001928D01*
X128240518Y-67014188D01*
X128120820Y-67050498D01*
X128010506Y-67109463D01*
X127913815Y-67188815D01*
X127834463Y-67285506D01*
X127775498Y-67395820D01*
X127739188Y-67515518D01*
X127726928Y-67640000D01*
X126747000Y-67640000D01*
X126747000Y-64860000D01*
X137130394Y-64860000D01*
X133577394Y-68413000D01*
G36*
X118665000Y-77105750D02*
G01*
X118661928Y-77295000D01*
X118674188Y-77419482D01*
X118710498Y-77539180D01*
X118769463Y-77649494D01*
X118848815Y-77746185D01*
X118945506Y-77825537D01*
X119055820Y-77884502D01*
X119175518Y-77920812D01*
X119300000Y-77933072D01*
X119539250Y-77930000D01*
X119698000Y-77771250D01*
X119698000Y-77087000D01*
X119952000Y-77087000D01*
X119952000Y-77771250D01*
X120110750Y-77930000D01*
X120350000Y-77933072D01*
X120474482Y-77920812D01*
X120594180Y-77884502D01*
X120704494Y-77825537D01*
X120777161Y-77765901D01*
X120801058Y-77785512D01*
X120952433Y-77866423D01*
X121116684Y-77916248D01*
X121287500Y-77933072D01*
X121862500Y-77933072D01*
X122033316Y-77916248D01*
X122197567Y-77866423D01*
X122348942Y-77785512D01*
X122481623Y-77676623D01*
X122590512Y-77543942D01*
X122671423Y-77392567D01*
X122721248Y-77228316D01*
X122735166Y-77087000D01*
X123253500Y-77087000D01*
X123089003Y-77251497D01*
X123059999Y-77275300D01*
X123004871Y-77342475D01*
X122965026Y-77391025D01*
X122930539Y-77455546D01*
X122894454Y-77523055D01*
X122850997Y-77666316D01*
X122840000Y-77777969D01*
X122840000Y-77777979D01*
X122836324Y-77815301D01*
X122840000Y-77852624D01*
X122840001Y-79627014D01*
X122752433Y-79653577D01*
X122601058Y-79734488D01*
X122500000Y-79817425D01*
X122398942Y-79734488D01*
X122270215Y-79665683D01*
X122287205Y-79640256D01*
X122365226Y-79451898D01*
X122405000Y-79251939D01*
X122405000Y-79048061D01*
X122365226Y-78848102D01*
X122287205Y-78659744D01*
X122173937Y-78490226D01*
X122029774Y-78346063D01*
X121860256Y-78232795D01*
X121671898Y-78154774D01*
X121471939Y-78115000D01*
X121268061Y-78115000D01*
X121068102Y-78154774D01*
X120879744Y-78232795D01*
X120710226Y-78346063D01*
X120566063Y-78490226D01*
X120452795Y-78659744D01*
X120374774Y-78848102D01*
X120335000Y-79048061D01*
X120335000Y-79251939D01*
X120374774Y-79451898D01*
X120452795Y-79640256D01*
X120566063Y-79809774D01*
X120610000Y-79853711D01*
X120610001Y-79975433D01*
X120609488Y-79976058D01*
X120528577Y-80127433D01*
X120478752Y-80291684D01*
X120461928Y-80462500D01*
X120461928Y-80937500D01*
X120478752Y-81108316D01*
X120528577Y-81272567D01*
X120609488Y-81423942D01*
X120718377Y-81556623D01*
X120851058Y-81665512D01*
X121002433Y-81746423D01*
X121166684Y-81796248D01*
X121337500Y-81813072D01*
X121912500Y-81813072D01*
X122083316Y-81796248D01*
X122247567Y-81746423D01*
X122398942Y-81665512D01*
X122500000Y-81582575D01*
X122601058Y-81665512D01*
X122752433Y-81746423D01*
X122840000Y-81772986D01*
X122840001Y-83012361D01*
X122838987Y-83013038D01*
X122653038Y-83198987D01*
X122506939Y-83417641D01*
X122418379Y-83631444D01*
X122358935Y-83468634D01*
X122305037Y-83367797D01*
X122071269Y-83308336D01*
X121329605Y-84050000D01*
X122071269Y-84791664D01*
X122305037Y-84732203D01*
X122415934Y-84493758D01*
X122420706Y-84474173D01*
X122506939Y-84682359D01*
X122653038Y-84901013D01*
X122838987Y-85086962D01*
X123057641Y-85233061D01*
X123300595Y-85333696D01*
X123558514Y-85385000D01*
X123821486Y-85385000D01*
X124079405Y-85333696D01*
X124322359Y-85233061D01*
X124541013Y-85086962D01*
X124656706Y-84971269D01*
X126908336Y-84971269D01*
X126967797Y-85205037D01*
X127206242Y-85315934D01*
X127461740Y-85378183D01*
X127724473Y-85389390D01*
X127984344Y-85349125D01*
X128231366Y-85258935D01*
X128332203Y-85205037D01*
X128391664Y-84971269D01*
X127650000Y-84229605D01*
X126908336Y-84971269D01*
X124656706Y-84971269D01*
X124726962Y-84901013D01*
X124873061Y-84682359D01*
X124973696Y-84439405D01*
X125025000Y-84181486D01*
X125025000Y-84124473D01*
X126310610Y-84124473D01*
X126350875Y-84384344D01*
X126441065Y-84631366D01*
X126494963Y-84732203D01*
X126728731Y-84791664D01*
X127470395Y-84050000D01*
X126728731Y-83308336D01*
X126494963Y-83367797D01*
X126384066Y-83606242D01*
X126321817Y-83861740D01*
X126310610Y-84124473D01*
X125025000Y-84124473D01*
X125025000Y-83918514D01*
X124973696Y-83660595D01*
X124873061Y-83417641D01*
X124726962Y-83198987D01*
X124656706Y-83128731D01*
X126908336Y-83128731D01*
X127650000Y-83870395D01*
X128391664Y-83128731D01*
X128332203Y-82894963D01*
X128093758Y-82784066D01*
X127838260Y-82721817D01*
X127575527Y-82710610D01*
X127315656Y-82750875D01*
X127068634Y-82841065D01*
X126967797Y-82894963D01*
X126908336Y-83128731D01*
X124656706Y-83128731D01*
X124541013Y-83013038D01*
X124360000Y-82892090D01*
X124360000Y-81461121D01*
X124390512Y-81423942D01*
X124471423Y-81272567D01*
X124521248Y-81108316D01*
X124538072Y-80937500D01*
X124538072Y-80462500D01*
X124521248Y-80291684D01*
X124471423Y-80127433D01*
X124390512Y-79976058D01*
X124360000Y-79938879D01*
X124360000Y-79048061D01*
X125235000Y-79048061D01*
X125235000Y-79251939D01*
X125274774Y-79451898D01*
X125352795Y-79640256D01*
X125466063Y-79809774D01*
X125510000Y-79853711D01*
X125510001Y-79975433D01*
X125509488Y-79976058D01*
X125428577Y-80127433D01*
X125378752Y-80291684D01*
X125361928Y-80462500D01*
X125361928Y-80937500D01*
X125378752Y-81108316D01*
X125428577Y-81272567D01*
X125509488Y-81423942D01*
X125618377Y-81556623D01*
X125751058Y-81665512D01*
X125902433Y-81746423D01*
X126066684Y-81796248D01*
X126237500Y-81813072D01*
X126812500Y-81813072D01*
X126983316Y-81796248D01*
X127147567Y-81746423D01*
X127298942Y-81665512D01*
X127400000Y-81582575D01*
X127501058Y-81665512D01*
X127652433Y-81746423D01*
X127816684Y-81796248D01*
X127987500Y-81813072D01*
X128562500Y-81813072D01*
X128733316Y-81796248D01*
X128897567Y-81746423D01*
X129048942Y-81665512D01*
X129181623Y-81556623D01*
X129260920Y-81460000D01*
X129430000Y-81460000D01*
X129430001Y-82952225D01*
X129338987Y-83013038D01*
X129153038Y-83198987D01*
X129006939Y-83417641D01*
X128918379Y-83631444D01*
X128858935Y-83468634D01*
X128805037Y-83367797D01*
X128571269Y-83308336D01*
X127829605Y-84050000D01*
X128571269Y-84791664D01*
X128805037Y-84732203D01*
X128915934Y-84493758D01*
X128920706Y-84474173D01*
X129006939Y-84682359D01*
X129153038Y-84901013D01*
X129338987Y-85086962D01*
X129557641Y-85233061D01*
X129800595Y-85333696D01*
X130058514Y-85385000D01*
X130321486Y-85385000D01*
X130579405Y-85333696D01*
X130822359Y-85233061D01*
X131041013Y-85086962D01*
X131226962Y-84901013D01*
X131373061Y-84682359D01*
X131473696Y-84439405D01*
X131525000Y-84181486D01*
X131525000Y-83918514D01*
X131473696Y-83660595D01*
X131373061Y-83417641D01*
X131226962Y-83198987D01*
X131041013Y-83013038D01*
X130950000Y-82952225D01*
X130950000Y-82175440D01*
X130998061Y-82185000D01*
X131201939Y-82185000D01*
X131401898Y-82145226D01*
X131590256Y-82067205D01*
X131759774Y-81953937D01*
X131803711Y-81910000D01*
X131936561Y-81910000D01*
X132026875Y-81958274D01*
X132174243Y-82002977D01*
X132327500Y-82018072D01*
X132672500Y-82018072D01*
X132825757Y-82002977D01*
X132973125Y-81958274D01*
X133108940Y-81885679D01*
X133227983Y-81787983D01*
X133325679Y-81668940D01*
X133398274Y-81533125D01*
X133442977Y-81385757D01*
X133458072Y-81232500D01*
X133458072Y-80937500D01*
X133442977Y-80784243D01*
X133405688Y-80661316D01*
X133409502Y-80654180D01*
X133445812Y-80534482D01*
X133458072Y-80410000D01*
X133455000Y-80400750D01*
X133296250Y-80242000D01*
X133029763Y-80242000D01*
X132973125Y-80211726D01*
X132825757Y-80167023D01*
X132672500Y-80151928D01*
X132327500Y-80151928D01*
X132174243Y-80167023D01*
X132026875Y-80211726D01*
X131970237Y-80242000D01*
X131703750Y-80242000D01*
X131663809Y-80281941D01*
X131590256Y-80232795D01*
X131401898Y-80154774D01*
X131201939Y-80115000D01*
X130998061Y-80115000D01*
X130798102Y-80154774D01*
X130609744Y-80232795D01*
X130458592Y-80333791D01*
X130313804Y-80189003D01*
X130290001Y-80159999D01*
X130174276Y-80065026D01*
X130042247Y-79994454D01*
X129898986Y-79950997D01*
X129787333Y-79940000D01*
X129787322Y-79940000D01*
X129750000Y-79936324D01*
X129712678Y-79940000D01*
X129260920Y-79940000D01*
X129181623Y-79843377D01*
X129153139Y-79820000D01*
X131541928Y-79820000D01*
X131545000Y-79829250D01*
X131703750Y-79988000D01*
X132373000Y-79988000D01*
X132373000Y-79343750D01*
X132627000Y-79343750D01*
X132627000Y-79988000D01*
X133296250Y-79988000D01*
X133455000Y-79829250D01*
X133458072Y-79820000D01*
X133457088Y-79810000D01*
X136011928Y-79810000D01*
X136024188Y-79934482D01*
X136060498Y-80054180D01*
X136119463Y-80164494D01*
X136198815Y-80261185D01*
X136295506Y-80340537D01*
X136405820Y-80399502D01*
X136525518Y-80435812D01*
X136650000Y-80448072D01*
X137214250Y-80445000D01*
X137373000Y-80286250D01*
X137373000Y-79087000D01*
X137627000Y-79087000D01*
X137627000Y-80286250D01*
X137785750Y-80445000D01*
X138350000Y-80448072D01*
X138474482Y-80435812D01*
X138594180Y-80399502D01*
X138704494Y-80340537D01*
X138801185Y-80261185D01*
X138880537Y-80164494D01*
X138939502Y-80054180D01*
X138975812Y-79934482D01*
X138988072Y-79810000D01*
X138985000Y-79245750D01*
X138826250Y-79087000D01*
X137627000Y-79087000D01*
X137373000Y-79087000D01*
X136173750Y-79087000D01*
X136015000Y-79245750D01*
X136011928Y-79810000D01*
X133457088Y-79810000D01*
X133445812Y-79695518D01*
X133409502Y-79575820D01*
X133350537Y-79465506D01*
X133271185Y-79368815D01*
X133174494Y-79289463D01*
X133064180Y-79230498D01*
X132944482Y-79194188D01*
X132820000Y-79181928D01*
X132785750Y-79185000D01*
X132627000Y-79343750D01*
X132373000Y-79343750D01*
X132214250Y-79185000D01*
X132180000Y-79181928D01*
X132055518Y-79194188D01*
X131935820Y-79230498D01*
X131825506Y-79289463D01*
X131728815Y-79368815D01*
X131649463Y-79465506D01*
X131590498Y-79575820D01*
X131554188Y-79695518D01*
X131541928Y-79820000D01*
X129153139Y-79820000D01*
X129048942Y-79734488D01*
X128897567Y-79653577D01*
X128733316Y-79603752D01*
X128562500Y-79586928D01*
X127987500Y-79586928D01*
X127816684Y-79603752D01*
X127652433Y-79653577D01*
X127501058Y-79734488D01*
X127400000Y-79817425D01*
X127298942Y-79734488D01*
X127170215Y-79665683D01*
X127187205Y-79640256D01*
X127265226Y-79451898D01*
X127305000Y-79251939D01*
X127305000Y-79048061D01*
X127265226Y-78848102D01*
X127187205Y-78659744D01*
X127073937Y-78490226D01*
X126929774Y-78346063D01*
X126760256Y-78232795D01*
X126571898Y-78154774D01*
X126371939Y-78115000D01*
X126168061Y-78115000D01*
X125968102Y-78154774D01*
X125779744Y-78232795D01*
X125610226Y-78346063D01*
X125466063Y-78490226D01*
X125352795Y-78659744D01*
X125274774Y-78848102D01*
X125235000Y-79048061D01*
X124360000Y-79048061D01*
X124360000Y-78130102D01*
X125307702Y-77182401D01*
X125635833Y-77182401D01*
X125747486Y-77171404D01*
X125778247Y-77162073D01*
X125954100Y-77162073D01*
X126078582Y-77149813D01*
X126198280Y-77113503D01*
X126247863Y-77087000D01*
X126794300Y-77087000D01*
X126794300Y-77116978D01*
X126790624Y-77154300D01*
X126794300Y-77191622D01*
X126794300Y-77191633D01*
X126805297Y-77303286D01*
X126831913Y-77391026D01*
X126848754Y-77446546D01*
X126915000Y-77570483D01*
X126915000Y-77651939D01*
X126954774Y-77851898D01*
X127032795Y-78040256D01*
X127146063Y-78209774D01*
X127290226Y-78353937D01*
X127459744Y-78467205D01*
X127648102Y-78545226D01*
X127848061Y-78585000D01*
X128051939Y-78585000D01*
X128251898Y-78545226D01*
X128440256Y-78467205D01*
X128609774Y-78353937D01*
X128753937Y-78209774D01*
X128867205Y-78040256D01*
X128945226Y-77851898D01*
X128985000Y-77651939D01*
X128985000Y-77468478D01*
X129101898Y-77445226D01*
X129290256Y-77367205D01*
X129459774Y-77253937D01*
X129520000Y-77193711D01*
X129520000Y-77277002D01*
X129678748Y-77277002D01*
X129520000Y-77435750D01*
X129516928Y-77675000D01*
X129529188Y-77799482D01*
X129565498Y-77919180D01*
X129624463Y-78029494D01*
X129703815Y-78126185D01*
X129800506Y-78205537D01*
X129910820Y-78264502D01*
X130030518Y-78300812D01*
X130155000Y-78313072D01*
X130344250Y-78310000D01*
X130503000Y-78151250D01*
X130503000Y-77277000D01*
X130757000Y-77277000D01*
X130757000Y-78151250D01*
X130915750Y-78310000D01*
X131105000Y-78313072D01*
X131229482Y-78300812D01*
X131349180Y-78264502D01*
X131385000Y-78245356D01*
X131420820Y-78264502D01*
X131540518Y-78300812D01*
X131665000Y-78313072D01*
X131854250Y-78310000D01*
X132013000Y-78151250D01*
X132013000Y-77277000D01*
X130757000Y-77277000D01*
X130503000Y-77277000D01*
X130483000Y-77277000D01*
X130483000Y-77087000D01*
X132287000Y-77087000D01*
X132287000Y-77277000D01*
X132267000Y-77277000D01*
X132267000Y-78151250D01*
X132425750Y-78310000D01*
X132615000Y-78313072D01*
X132627362Y-78311855D01*
X132639463Y-78334494D01*
X132718815Y-78431185D01*
X132815506Y-78510537D01*
X132925820Y-78569502D01*
X133045518Y-78605812D01*
X133170000Y-78618072D01*
X133584250Y-78615000D01*
X133743000Y-78456250D01*
X133743000Y-77532000D01*
X133997000Y-77532000D01*
X133997000Y-78456250D01*
X134155750Y-78615000D01*
X134570000Y-78618072D01*
X134694482Y-78605812D01*
X134814180Y-78569502D01*
X134924494Y-78510537D01*
X135021185Y-78431185D01*
X135100537Y-78334494D01*
X135159502Y-78224180D01*
X135194138Y-78110000D01*
X136011928Y-78110000D01*
X136015000Y-78674250D01*
X136173750Y-78833000D01*
X137373000Y-78833000D01*
X137373000Y-77633750D01*
X137627000Y-77633750D01*
X137627000Y-78833000D01*
X138826250Y-78833000D01*
X138985000Y-78674250D01*
X138988072Y-78110000D01*
X138975812Y-77985518D01*
X138939502Y-77865820D01*
X138880537Y-77755506D01*
X138801185Y-77658815D01*
X138704494Y-77579463D01*
X138594180Y-77520498D01*
X138474482Y-77484188D01*
X138350000Y-77471928D01*
X137785750Y-77475000D01*
X137627000Y-77633750D01*
X137373000Y-77633750D01*
X137214250Y-77475000D01*
X136650000Y-77471928D01*
X136525518Y-77484188D01*
X136405820Y-77520498D01*
X136295506Y-77579463D01*
X136198815Y-77658815D01*
X136119463Y-77755506D01*
X136060498Y-77865820D01*
X136024188Y-77985518D01*
X136011928Y-78110000D01*
X135194138Y-78110000D01*
X135195812Y-78104482D01*
X135208072Y-77980000D01*
X135205000Y-77690750D01*
X135046250Y-77532000D01*
X133997000Y-77532000D01*
X133743000Y-77532000D01*
X133723000Y-77532000D01*
X133723000Y-77278000D01*
X133743000Y-77278000D01*
X133743000Y-77258000D01*
X133997000Y-77258000D01*
X133997000Y-77278000D01*
X135046250Y-77278000D01*
X135205000Y-77119250D01*
X135205343Y-77087000D01*
X139040000Y-77087000D01*
X139040000Y-88540000D01*
X116027000Y-88540000D01*
X116027000Y-86200000D01*
X119661928Y-86200000D01*
X119661928Y-87900000D01*
X119674188Y-88024482D01*
X119710498Y-88144180D01*
X119769463Y-88254494D01*
X119848815Y-88351185D01*
X119945506Y-88430537D01*
X120055820Y-88489502D01*
X120175518Y-88525812D01*
X120300000Y-88538072D01*
X122000000Y-88538072D01*
X122124482Y-88525812D01*
X122244180Y-88489502D01*
X122354494Y-88430537D01*
X122451185Y-88351185D01*
X122530537Y-88254494D01*
X122589502Y-88144180D01*
X122625812Y-88024482D01*
X122638072Y-87900000D01*
X122638072Y-86200000D01*
X128701928Y-86200000D01*
X128701928Y-87900000D01*
X128714188Y-88024482D01*
X128750498Y-88144180D01*
X128809463Y-88254494D01*
X128888815Y-88351185D01*
X128985506Y-88430537D01*
X129095820Y-88489502D01*
X129215518Y-88525812D01*
X129340000Y-88538072D01*
X131040000Y-88538072D01*
X131164482Y-88525812D01*
X131284180Y-88489502D01*
X131394494Y-88430537D01*
X131491185Y-88351185D01*
X131570537Y-88254494D01*
X131629502Y-88144180D01*
X131665812Y-88024482D01*
X131678072Y-87900000D01*
X131678072Y-86200000D01*
X131665812Y-86075518D01*
X131629502Y-85955820D01*
X131570537Y-85845506D01*
X131491185Y-85748815D01*
X131394494Y-85669463D01*
X131284180Y-85610498D01*
X131164482Y-85574188D01*
X131040000Y-85561928D01*
X129340000Y-85561928D01*
X129215518Y-85574188D01*
X129095820Y-85610498D01*
X128985506Y-85669463D01*
X128888815Y-85748815D01*
X128809463Y-85845506D01*
X128750498Y-85955820D01*
X128714188Y-86075518D01*
X128701928Y-86200000D01*
X122638072Y-86200000D01*
X122625812Y-86075518D01*
X122589502Y-85955820D01*
X122530537Y-85845506D01*
X122451185Y-85748815D01*
X122354494Y-85669463D01*
X122244180Y-85610498D01*
X122124482Y-85574188D01*
X122000000Y-85561928D01*
X120300000Y-85561928D01*
X120175518Y-85574188D01*
X120055820Y-85610498D01*
X119945506Y-85669463D01*
X119848815Y-85748815D01*
X119769463Y-85845506D01*
X119710498Y-85955820D01*
X119674188Y-86075518D01*
X119661928Y-86200000D01*
X116027000Y-86200000D01*
X116027000Y-84971269D01*
X120408336Y-84971269D01*
X120467797Y-85205037D01*
X120706242Y-85315934D01*
X120961740Y-85378183D01*
X121224473Y-85389390D01*
X121484344Y-85349125D01*
X121731366Y-85258935D01*
X121832203Y-85205037D01*
X121891664Y-84971269D01*
X121150000Y-84229605D01*
X120408336Y-84971269D01*
X116027000Y-84971269D01*
X116027000Y-84124473D01*
X119810610Y-84124473D01*
X119850875Y-84384344D01*
X119941065Y-84631366D01*
X119994963Y-84732203D01*
X120228731Y-84791664D01*
X120970395Y-84050000D01*
X120228731Y-83308336D01*
X119994963Y-83367797D01*
X119884066Y-83606242D01*
X119821817Y-83861740D01*
X119810610Y-84124473D01*
X116027000Y-84124473D01*
X116027000Y-83128731D01*
X120408336Y-83128731D01*
X121150000Y-83870395D01*
X121891664Y-83128731D01*
X121832203Y-82894963D01*
X121593758Y-82784066D01*
X121338260Y-82721817D01*
X121075527Y-82710610D01*
X120815656Y-82750875D01*
X120568634Y-82841065D01*
X120467797Y-82894963D01*
X120408336Y-83128731D01*
X116027000Y-83128731D01*
X116027000Y-77087000D01*
X118683750Y-77087000D01*
X118665000Y-77105750D01*
G37*
X118665000Y-77105750D02*
X118661928Y-77295000D01*
X118674188Y-77419482D01*
X118710498Y-77539180D01*
X118769463Y-77649494D01*
X118848815Y-77746185D01*
X118945506Y-77825537D01*
X119055820Y-77884502D01*
X119175518Y-77920812D01*
X119300000Y-77933072D01*
X119539250Y-77930000D01*
X119698000Y-77771250D01*
X119698000Y-77087000D01*
X119952000Y-77087000D01*
X119952000Y-77771250D01*
X120110750Y-77930000D01*
X120350000Y-77933072D01*
X120474482Y-77920812D01*
X120594180Y-77884502D01*
X120704494Y-77825537D01*
X120777161Y-77765901D01*
X120801058Y-77785512D01*
X120952433Y-77866423D01*
X121116684Y-77916248D01*
X121287500Y-77933072D01*
X121862500Y-77933072D01*
X122033316Y-77916248D01*
X122197567Y-77866423D01*
X122348942Y-77785512D01*
X122481623Y-77676623D01*
X122590512Y-77543942D01*
X122671423Y-77392567D01*
X122721248Y-77228316D01*
X122735166Y-77087000D01*
X123253500Y-77087000D01*
X123089003Y-77251497D01*
X123059999Y-77275300D01*
X123004871Y-77342475D01*
X122965026Y-77391025D01*
X122930539Y-77455546D01*
X122894454Y-77523055D01*
X122850997Y-77666316D01*
X122840000Y-77777969D01*
X122840000Y-77777979D01*
X122836324Y-77815301D01*
X122840000Y-77852624D01*
X122840001Y-79627014D01*
X122752433Y-79653577D01*
X122601058Y-79734488D01*
X122500000Y-79817425D01*
X122398942Y-79734488D01*
X122270215Y-79665683D01*
X122287205Y-79640256D01*
X122365226Y-79451898D01*
X122405000Y-79251939D01*
X122405000Y-79048061D01*
X122365226Y-78848102D01*
X122287205Y-78659744D01*
X122173937Y-78490226D01*
X122029774Y-78346063D01*
X121860256Y-78232795D01*
X121671898Y-78154774D01*
X121471939Y-78115000D01*
X121268061Y-78115000D01*
X121068102Y-78154774D01*
X120879744Y-78232795D01*
X120710226Y-78346063D01*
X120566063Y-78490226D01*
X120452795Y-78659744D01*
X120374774Y-78848102D01*
X120335000Y-79048061D01*
X120335000Y-79251939D01*
X120374774Y-79451898D01*
X120452795Y-79640256D01*
X120566063Y-79809774D01*
X120610000Y-79853711D01*
X120610001Y-79975433D01*
X120609488Y-79976058D01*
X120528577Y-80127433D01*
X120478752Y-80291684D01*
X120461928Y-80462500D01*
X120461928Y-80937500D01*
X120478752Y-81108316D01*
X120528577Y-81272567D01*
X120609488Y-81423942D01*
X120718377Y-81556623D01*
X120851058Y-81665512D01*
X121002433Y-81746423D01*
X121166684Y-81796248D01*
X121337500Y-81813072D01*
X121912500Y-81813072D01*
X122083316Y-81796248D01*
X122247567Y-81746423D01*
X122398942Y-81665512D01*
X122500000Y-81582575D01*
X122601058Y-81665512D01*
X122752433Y-81746423D01*
X122840000Y-81772986D01*
X122840001Y-83012361D01*
X122838987Y-83013038D01*
X122653038Y-83198987D01*
X122506939Y-83417641D01*
X122418379Y-83631444D01*
X122358935Y-83468634D01*
X122305037Y-83367797D01*
X122071269Y-83308336D01*
X121329605Y-84050000D01*
X122071269Y-84791664D01*
X122305037Y-84732203D01*
X122415934Y-84493758D01*
X122420706Y-84474173D01*
X122506939Y-84682359D01*
X122653038Y-84901013D01*
X122838987Y-85086962D01*
X123057641Y-85233061D01*
X123300595Y-85333696D01*
X123558514Y-85385000D01*
X123821486Y-85385000D01*
X124079405Y-85333696D01*
X124322359Y-85233061D01*
X124541013Y-85086962D01*
X124656706Y-84971269D01*
X126908336Y-84971269D01*
X126967797Y-85205037D01*
X127206242Y-85315934D01*
X127461740Y-85378183D01*
X127724473Y-85389390D01*
X127984344Y-85349125D01*
X128231366Y-85258935D01*
X128332203Y-85205037D01*
X128391664Y-84971269D01*
X127650000Y-84229605D01*
X126908336Y-84971269D01*
X124656706Y-84971269D01*
X124726962Y-84901013D01*
X124873061Y-84682359D01*
X124973696Y-84439405D01*
X125025000Y-84181486D01*
X125025000Y-84124473D01*
X126310610Y-84124473D01*
X126350875Y-84384344D01*
X126441065Y-84631366D01*
X126494963Y-84732203D01*
X126728731Y-84791664D01*
X127470395Y-84050000D01*
X126728731Y-83308336D01*
X126494963Y-83367797D01*
X126384066Y-83606242D01*
X126321817Y-83861740D01*
X126310610Y-84124473D01*
X125025000Y-84124473D01*
X125025000Y-83918514D01*
X124973696Y-83660595D01*
X124873061Y-83417641D01*
X124726962Y-83198987D01*
X124656706Y-83128731D01*
X126908336Y-83128731D01*
X127650000Y-83870395D01*
X128391664Y-83128731D01*
X128332203Y-82894963D01*
X128093758Y-82784066D01*
X127838260Y-82721817D01*
X127575527Y-82710610D01*
X127315656Y-82750875D01*
X127068634Y-82841065D01*
X126967797Y-82894963D01*
X126908336Y-83128731D01*
X124656706Y-83128731D01*
X124541013Y-83013038D01*
X124360000Y-82892090D01*
X124360000Y-81461121D01*
X124390512Y-81423942D01*
X124471423Y-81272567D01*
X124521248Y-81108316D01*
X124538072Y-80937500D01*
X124538072Y-80462500D01*
X124521248Y-80291684D01*
X124471423Y-80127433D01*
X124390512Y-79976058D01*
X124360000Y-79938879D01*
X124360000Y-79048061D01*
X125235000Y-79048061D01*
X125235000Y-79251939D01*
X125274774Y-79451898D01*
X125352795Y-79640256D01*
X125466063Y-79809774D01*
X125510000Y-79853711D01*
X125510001Y-79975433D01*
X125509488Y-79976058D01*
X125428577Y-80127433D01*
X125378752Y-80291684D01*
X125361928Y-80462500D01*
X125361928Y-80937500D01*
X125378752Y-81108316D01*
X125428577Y-81272567D01*
X125509488Y-81423942D01*
X125618377Y-81556623D01*
X125751058Y-81665512D01*
X125902433Y-81746423D01*
X126066684Y-81796248D01*
X126237500Y-81813072D01*
X126812500Y-81813072D01*
X126983316Y-81796248D01*
X127147567Y-81746423D01*
X127298942Y-81665512D01*
X127400000Y-81582575D01*
X127501058Y-81665512D01*
X127652433Y-81746423D01*
X127816684Y-81796248D01*
X127987500Y-81813072D01*
X128562500Y-81813072D01*
X128733316Y-81796248D01*
X128897567Y-81746423D01*
X129048942Y-81665512D01*
X129181623Y-81556623D01*
X129260920Y-81460000D01*
X129430000Y-81460000D01*
X129430001Y-82952225D01*
X129338987Y-83013038D01*
X129153038Y-83198987D01*
X129006939Y-83417641D01*
X128918379Y-83631444D01*
X128858935Y-83468634D01*
X128805037Y-83367797D01*
X128571269Y-83308336D01*
X127829605Y-84050000D01*
X128571269Y-84791664D01*
X128805037Y-84732203D01*
X128915934Y-84493758D01*
X128920706Y-84474173D01*
X129006939Y-84682359D01*
X129153038Y-84901013D01*
X129338987Y-85086962D01*
X129557641Y-85233061D01*
X129800595Y-85333696D01*
X130058514Y-85385000D01*
X130321486Y-85385000D01*
X130579405Y-85333696D01*
X130822359Y-85233061D01*
X131041013Y-85086962D01*
X131226962Y-84901013D01*
X131373061Y-84682359D01*
X131473696Y-84439405D01*
X131525000Y-84181486D01*
X131525000Y-83918514D01*
X131473696Y-83660595D01*
X131373061Y-83417641D01*
X131226962Y-83198987D01*
X131041013Y-83013038D01*
X130950000Y-82952225D01*
X130950000Y-82175440D01*
X130998061Y-82185000D01*
X131201939Y-82185000D01*
X131401898Y-82145226D01*
X131590256Y-82067205D01*
X131759774Y-81953937D01*
X131803711Y-81910000D01*
X131936561Y-81910000D01*
X132026875Y-81958274D01*
X132174243Y-82002977D01*
X132327500Y-82018072D01*
X132672500Y-82018072D01*
X132825757Y-82002977D01*
X132973125Y-81958274D01*
X133108940Y-81885679D01*
X133227983Y-81787983D01*
X133325679Y-81668940D01*
X133398274Y-81533125D01*
X133442977Y-81385757D01*
X133458072Y-81232500D01*
X133458072Y-80937500D01*
X133442977Y-80784243D01*
X133405688Y-80661316D01*
X133409502Y-80654180D01*
X133445812Y-80534482D01*
X133458072Y-80410000D01*
X133455000Y-80400750D01*
X133296250Y-80242000D01*
X133029763Y-80242000D01*
X132973125Y-80211726D01*
X132825757Y-80167023D01*
X132672500Y-80151928D01*
X132327500Y-80151928D01*
X132174243Y-80167023D01*
X132026875Y-80211726D01*
X131970237Y-80242000D01*
X131703750Y-80242000D01*
X131663809Y-80281941D01*
X131590256Y-80232795D01*
X131401898Y-80154774D01*
X131201939Y-80115000D01*
X130998061Y-80115000D01*
X130798102Y-80154774D01*
X130609744Y-80232795D01*
X130458592Y-80333791D01*
X130313804Y-80189003D01*
X130290001Y-80159999D01*
X130174276Y-80065026D01*
X130042247Y-79994454D01*
X129898986Y-79950997D01*
X129787333Y-79940000D01*
X129787322Y-79940000D01*
X129750000Y-79936324D01*
X129712678Y-79940000D01*
X129260920Y-79940000D01*
X129181623Y-79843377D01*
X129153139Y-79820000D01*
X131541928Y-79820000D01*
X131545000Y-79829250D01*
X131703750Y-79988000D01*
X132373000Y-79988000D01*
X132373000Y-79343750D01*
X132627000Y-79343750D01*
X132627000Y-79988000D01*
X133296250Y-79988000D01*
X133455000Y-79829250D01*
X133458072Y-79820000D01*
X133457088Y-79810000D01*
X136011928Y-79810000D01*
X136024188Y-79934482D01*
X136060498Y-80054180D01*
X136119463Y-80164494D01*
X136198815Y-80261185D01*
X136295506Y-80340537D01*
X136405820Y-80399502D01*
X136525518Y-80435812D01*
X136650000Y-80448072D01*
X137214250Y-80445000D01*
X137373000Y-80286250D01*
X137373000Y-79087000D01*
X137627000Y-79087000D01*
X137627000Y-80286250D01*
X137785750Y-80445000D01*
X138350000Y-80448072D01*
X138474482Y-80435812D01*
X138594180Y-80399502D01*
X138704494Y-80340537D01*
X138801185Y-80261185D01*
X138880537Y-80164494D01*
X138939502Y-80054180D01*
X138975812Y-79934482D01*
X138988072Y-79810000D01*
X138985000Y-79245750D01*
X138826250Y-79087000D01*
X137627000Y-79087000D01*
X137373000Y-79087000D01*
X136173750Y-79087000D01*
X136015000Y-79245750D01*
X136011928Y-79810000D01*
X133457088Y-79810000D01*
X133445812Y-79695518D01*
X133409502Y-79575820D01*
X133350537Y-79465506D01*
X133271185Y-79368815D01*
X133174494Y-79289463D01*
X133064180Y-79230498D01*
X132944482Y-79194188D01*
X132820000Y-79181928D01*
X132785750Y-79185000D01*
X132627000Y-79343750D01*
X132373000Y-79343750D01*
X132214250Y-79185000D01*
X132180000Y-79181928D01*
X132055518Y-79194188D01*
X131935820Y-79230498D01*
X131825506Y-79289463D01*
X131728815Y-79368815D01*
X131649463Y-79465506D01*
X131590498Y-79575820D01*
X131554188Y-79695518D01*
X131541928Y-79820000D01*
X129153139Y-79820000D01*
X129048942Y-79734488D01*
X128897567Y-79653577D01*
X128733316Y-79603752D01*
X128562500Y-79586928D01*
X127987500Y-79586928D01*
X127816684Y-79603752D01*
X127652433Y-79653577D01*
X127501058Y-79734488D01*
X127400000Y-79817425D01*
X127298942Y-79734488D01*
X127170215Y-79665683D01*
X127187205Y-79640256D01*
X127265226Y-79451898D01*
X127305000Y-79251939D01*
X127305000Y-79048061D01*
X127265226Y-78848102D01*
X127187205Y-78659744D01*
X127073937Y-78490226D01*
X126929774Y-78346063D01*
X126760256Y-78232795D01*
X126571898Y-78154774D01*
X126371939Y-78115000D01*
X126168061Y-78115000D01*
X125968102Y-78154774D01*
X125779744Y-78232795D01*
X125610226Y-78346063D01*
X125466063Y-78490226D01*
X125352795Y-78659744D01*
X125274774Y-78848102D01*
X125235000Y-79048061D01*
X124360000Y-79048061D01*
X124360000Y-78130102D01*
X125307702Y-77182401D01*
X125635833Y-77182401D01*
X125747486Y-77171404D01*
X125778247Y-77162073D01*
X125954100Y-77162073D01*
X126078582Y-77149813D01*
X126198280Y-77113503D01*
X126247863Y-77087000D01*
X126794300Y-77087000D01*
X126794300Y-77116978D01*
X126790624Y-77154300D01*
X126794300Y-77191622D01*
X126794300Y-77191633D01*
X126805297Y-77303286D01*
X126831913Y-77391026D01*
X126848754Y-77446546D01*
X126915000Y-77570483D01*
X126915000Y-77651939D01*
X126954774Y-77851898D01*
X127032795Y-78040256D01*
X127146063Y-78209774D01*
X127290226Y-78353937D01*
X127459744Y-78467205D01*
X127648102Y-78545226D01*
X127848061Y-78585000D01*
X128051939Y-78585000D01*
X128251898Y-78545226D01*
X128440256Y-78467205D01*
X128609774Y-78353937D01*
X128753937Y-78209774D01*
X128867205Y-78040256D01*
X128945226Y-77851898D01*
X128985000Y-77651939D01*
X128985000Y-77468478D01*
X129101898Y-77445226D01*
X129290256Y-77367205D01*
X129459774Y-77253937D01*
X129520000Y-77193711D01*
X129520000Y-77277002D01*
X129678748Y-77277002D01*
X129520000Y-77435750D01*
X129516928Y-77675000D01*
X129529188Y-77799482D01*
X129565498Y-77919180D01*
X129624463Y-78029494D01*
X129703815Y-78126185D01*
X129800506Y-78205537D01*
X129910820Y-78264502D01*
X130030518Y-78300812D01*
X130155000Y-78313072D01*
X130344250Y-78310000D01*
X130503000Y-78151250D01*
X130503000Y-77277000D01*
X130757000Y-77277000D01*
X130757000Y-78151250D01*
X130915750Y-78310000D01*
X131105000Y-78313072D01*
X131229482Y-78300812D01*
X131349180Y-78264502D01*
X131385000Y-78245356D01*
X131420820Y-78264502D01*
X131540518Y-78300812D01*
X131665000Y-78313072D01*
X131854250Y-78310000D01*
X132013000Y-78151250D01*
X132013000Y-77277000D01*
X130757000Y-77277000D01*
X130503000Y-77277000D01*
X130483000Y-77277000D01*
X130483000Y-77087000D01*
X132287000Y-77087000D01*
X132287000Y-77277000D01*
X132267000Y-77277000D01*
X132267000Y-78151250D01*
X132425750Y-78310000D01*
X132615000Y-78313072D01*
X132627362Y-78311855D01*
X132639463Y-78334494D01*
X132718815Y-78431185D01*
X132815506Y-78510537D01*
X132925820Y-78569502D01*
X133045518Y-78605812D01*
X133170000Y-78618072D01*
X133584250Y-78615000D01*
X133743000Y-78456250D01*
X133743000Y-77532000D01*
X133997000Y-77532000D01*
X133997000Y-78456250D01*
X134155750Y-78615000D01*
X134570000Y-78618072D01*
X134694482Y-78605812D01*
X134814180Y-78569502D01*
X134924494Y-78510537D01*
X135021185Y-78431185D01*
X135100537Y-78334494D01*
X135159502Y-78224180D01*
X135194138Y-78110000D01*
X136011928Y-78110000D01*
X136015000Y-78674250D01*
X136173750Y-78833000D01*
X137373000Y-78833000D01*
X137373000Y-77633750D01*
X137627000Y-77633750D01*
X137627000Y-78833000D01*
X138826250Y-78833000D01*
X138985000Y-78674250D01*
X138988072Y-78110000D01*
X138975812Y-77985518D01*
X138939502Y-77865820D01*
X138880537Y-77755506D01*
X138801185Y-77658815D01*
X138704494Y-77579463D01*
X138594180Y-77520498D01*
X138474482Y-77484188D01*
X138350000Y-77471928D01*
X137785750Y-77475000D01*
X137627000Y-77633750D01*
X137373000Y-77633750D01*
X137214250Y-77475000D01*
X136650000Y-77471928D01*
X136525518Y-77484188D01*
X136405820Y-77520498D01*
X136295506Y-77579463D01*
X136198815Y-77658815D01*
X136119463Y-77755506D01*
X136060498Y-77865820D01*
X136024188Y-77985518D01*
X136011928Y-78110000D01*
X135194138Y-78110000D01*
X135195812Y-78104482D01*
X135208072Y-77980000D01*
X135205000Y-77690750D01*
X135046250Y-77532000D01*
X133997000Y-77532000D01*
X133743000Y-77532000D01*
X133723000Y-77532000D01*
X133723000Y-77278000D01*
X133743000Y-77278000D01*
X133743000Y-77258000D01*
X133997000Y-77258000D01*
X133997000Y-77278000D01*
X135046250Y-77278000D01*
X135205000Y-77119250D01*
X135205343Y-77087000D01*
X139040000Y-77087000D01*
X139040000Y-88540000D01*
X116027000Y-88540000D01*
X116027000Y-86200000D01*
X119661928Y-86200000D01*
X119661928Y-87900000D01*
X119674188Y-88024482D01*
X119710498Y-88144180D01*
X119769463Y-88254494D01*
X119848815Y-88351185D01*
X119945506Y-88430537D01*
X120055820Y-88489502D01*
X120175518Y-88525812D01*
X120300000Y-88538072D01*
X122000000Y-88538072D01*
X122124482Y-88525812D01*
X122244180Y-88489502D01*
X122354494Y-88430537D01*
X122451185Y-88351185D01*
X122530537Y-88254494D01*
X122589502Y-88144180D01*
X122625812Y-88024482D01*
X122638072Y-87900000D01*
X122638072Y-86200000D01*
X128701928Y-86200000D01*
X128701928Y-87900000D01*
X128714188Y-88024482D01*
X128750498Y-88144180D01*
X128809463Y-88254494D01*
X128888815Y-88351185D01*
X128985506Y-88430537D01*
X129095820Y-88489502D01*
X129215518Y-88525812D01*
X129340000Y-88538072D01*
X131040000Y-88538072D01*
X131164482Y-88525812D01*
X131284180Y-88489502D01*
X131394494Y-88430537D01*
X131491185Y-88351185D01*
X131570537Y-88254494D01*
X131629502Y-88144180D01*
X131665812Y-88024482D01*
X131678072Y-87900000D01*
X131678072Y-86200000D01*
X131665812Y-86075518D01*
X131629502Y-85955820D01*
X131570537Y-85845506D01*
X131491185Y-85748815D01*
X131394494Y-85669463D01*
X131284180Y-85610498D01*
X131164482Y-85574188D01*
X131040000Y-85561928D01*
X129340000Y-85561928D01*
X129215518Y-85574188D01*
X129095820Y-85610498D01*
X128985506Y-85669463D01*
X128888815Y-85748815D01*
X128809463Y-85845506D01*
X128750498Y-85955820D01*
X128714188Y-86075518D01*
X128701928Y-86200000D01*
X122638072Y-86200000D01*
X122625812Y-86075518D01*
X122589502Y-85955820D01*
X122530537Y-85845506D01*
X122451185Y-85748815D01*
X122354494Y-85669463D01*
X122244180Y-85610498D01*
X122124482Y-85574188D01*
X122000000Y-85561928D01*
X120300000Y-85561928D01*
X120175518Y-85574188D01*
X120055820Y-85610498D01*
X119945506Y-85669463D01*
X119848815Y-85748815D01*
X119769463Y-85845506D01*
X119710498Y-85955820D01*
X119674188Y-86075518D01*
X119661928Y-86200000D01*
X116027000Y-86200000D01*
X116027000Y-84971269D01*
X120408336Y-84971269D01*
X120467797Y-85205037D01*
X120706242Y-85315934D01*
X120961740Y-85378183D01*
X121224473Y-85389390D01*
X121484344Y-85349125D01*
X121731366Y-85258935D01*
X121832203Y-85205037D01*
X121891664Y-84971269D01*
X121150000Y-84229605D01*
X120408336Y-84971269D01*
X116027000Y-84971269D01*
X116027000Y-84124473D01*
X119810610Y-84124473D01*
X119850875Y-84384344D01*
X119941065Y-84631366D01*
X119994963Y-84732203D01*
X120228731Y-84791664D01*
X120970395Y-84050000D01*
X120228731Y-83308336D01*
X119994963Y-83367797D01*
X119884066Y-83606242D01*
X119821817Y-83861740D01*
X119810610Y-84124473D01*
X116027000Y-84124473D01*
X116027000Y-83128731D01*
X120408336Y-83128731D01*
X121150000Y-83870395D01*
X121891664Y-83128731D01*
X121832203Y-82894963D01*
X121593758Y-82784066D01*
X121338260Y-82721817D01*
X121075527Y-82710610D01*
X120815656Y-82750875D01*
X120568634Y-82841065D01*
X120467797Y-82894963D01*
X120408336Y-83128731D01*
X116027000Y-83128731D01*
X116027000Y-77087000D01*
X118683750Y-77087000D01*
X118665000Y-77105750D01*
G36*
X114253000Y-70123000D02*
G01*
X110360000Y-70123000D01*
X110360000Y-69453642D01*
X110390498Y-69554180D01*
X110449463Y-69664494D01*
X110528815Y-69761185D01*
X110625506Y-69840537D01*
X110735820Y-69899502D01*
X110855518Y-69935812D01*
X110980000Y-69948072D01*
X111544250Y-69945000D01*
X111703000Y-69786250D01*
X111703000Y-68587000D01*
X111957000Y-68587000D01*
X111957000Y-69786250D01*
X112115750Y-69945000D01*
X112680000Y-69948072D01*
X112804482Y-69935812D01*
X112924180Y-69899502D01*
X113034494Y-69840537D01*
X113131185Y-69761185D01*
X113210537Y-69664494D01*
X113269502Y-69554180D01*
X113305812Y-69434482D01*
X113318072Y-69310000D01*
X113315000Y-68745750D01*
X113156250Y-68587000D01*
X111957000Y-68587000D01*
X111703000Y-68587000D01*
X111683000Y-68587000D01*
X111683000Y-68333000D01*
X111703000Y-68333000D01*
X111703000Y-67133750D01*
X111957000Y-67133750D01*
X111957000Y-68333000D01*
X113156250Y-68333000D01*
X113315000Y-68174250D01*
X113318072Y-67610000D01*
X113305812Y-67485518D01*
X113269502Y-67365820D01*
X113210537Y-67255506D01*
X113131185Y-67158815D01*
X113034494Y-67079463D01*
X112924180Y-67020498D01*
X112804482Y-66984188D01*
X112680000Y-66971928D01*
X112115750Y-66975000D01*
X111957000Y-67133750D01*
X111703000Y-67133750D01*
X111544250Y-66975000D01*
X110980000Y-66971928D01*
X110855518Y-66984188D01*
X110735820Y-67020498D01*
X110625506Y-67079463D01*
X110528815Y-67158815D01*
X110449463Y-67255506D01*
X110390498Y-67365820D01*
X110360000Y-67466358D01*
X110360000Y-64860000D01*
X114253000Y-64860000D01*
X114253000Y-70123000D01*
G37*
X114253000Y-70123000D02*
X110360000Y-70123000D01*
X110360000Y-69453642D01*
X110390498Y-69554180D01*
X110449463Y-69664494D01*
X110528815Y-69761185D01*
X110625506Y-69840537D01*
X110735820Y-69899502D01*
X110855518Y-69935812D01*
X110980000Y-69948072D01*
X111544250Y-69945000D01*
X111703000Y-69786250D01*
X111703000Y-68587000D01*
X111957000Y-68587000D01*
X111957000Y-69786250D01*
X112115750Y-69945000D01*
X112680000Y-69948072D01*
X112804482Y-69935812D01*
X112924180Y-69899502D01*
X113034494Y-69840537D01*
X113131185Y-69761185D01*
X113210537Y-69664494D01*
X113269502Y-69554180D01*
X113305812Y-69434482D01*
X113318072Y-69310000D01*
X113315000Y-68745750D01*
X113156250Y-68587000D01*
X111957000Y-68587000D01*
X111703000Y-68587000D01*
X111683000Y-68587000D01*
X111683000Y-68333000D01*
X111703000Y-68333000D01*
X111703000Y-67133750D01*
X111957000Y-67133750D01*
X111957000Y-68333000D01*
X113156250Y-68333000D01*
X113315000Y-68174250D01*
X113318072Y-67610000D01*
X113305812Y-67485518D01*
X113269502Y-67365820D01*
X113210537Y-67255506D01*
X113131185Y-67158815D01*
X113034494Y-67079463D01*
X112924180Y-67020498D01*
X112804482Y-66984188D01*
X112680000Y-66971928D01*
X112115750Y-66975000D01*
X111957000Y-67133750D01*
X111703000Y-67133750D01*
X111544250Y-66975000D01*
X110980000Y-66971928D01*
X110855518Y-66984188D01*
X110735820Y-67020498D01*
X110625506Y-67079463D01*
X110528815Y-67158815D01*
X110449463Y-67255506D01*
X110390498Y-67365820D01*
X110360000Y-67466358D01*
X110360000Y-64860000D01*
X114253000Y-64860000D01*
X114253000Y-70123000D01*
G36*
X115461928Y-71375000D02*
G01*
X115474188Y-71499482D01*
X115510498Y-71619180D01*
X115569463Y-71729494D01*
X115648815Y-71826185D01*
X115745506Y-71905537D01*
X115855820Y-71964502D01*
X115975518Y-72000812D01*
X116100000Y-72013072D01*
X116289250Y-72010000D01*
X116448000Y-71851250D01*
X116448000Y-71317000D01*
X116702000Y-71317000D01*
X116702000Y-71851250D01*
X116860750Y-72010000D01*
X117050000Y-72013072D01*
X117174482Y-72000812D01*
X117294180Y-71964502D01*
X117327823Y-71946519D01*
X117370820Y-71969502D01*
X117490518Y-72005812D01*
X117615000Y-72018072D01*
X117804250Y-72015000D01*
X117963000Y-71856250D01*
X117963000Y-71317000D01*
X118217000Y-71317000D01*
X118217000Y-71856250D01*
X118375750Y-72015000D01*
X118493000Y-72016903D01*
X118493000Y-88540000D01*
X110360000Y-88540000D01*
X110360000Y-78110000D01*
X110361928Y-78110000D01*
X110361928Y-79810000D01*
X110374188Y-79934482D01*
X110410498Y-80054180D01*
X110469463Y-80164494D01*
X110548815Y-80261185D01*
X110645506Y-80340537D01*
X110755820Y-80399502D01*
X110875518Y-80435812D01*
X111000000Y-80448072D01*
X112700000Y-80448072D01*
X112824482Y-80435812D01*
X112944180Y-80399502D01*
X113054494Y-80340537D01*
X113151185Y-80261185D01*
X113230537Y-80164494D01*
X113289502Y-80054180D01*
X113325812Y-79934482D01*
X113338072Y-79810000D01*
X113338072Y-78110000D01*
X113325812Y-77985518D01*
X113289502Y-77865820D01*
X113230537Y-77755506D01*
X113151185Y-77658815D01*
X113054494Y-77579463D01*
X112944180Y-77520498D01*
X112824482Y-77484188D01*
X112700000Y-77471928D01*
X111000000Y-77471928D01*
X110875518Y-77484188D01*
X110755820Y-77520498D01*
X110645506Y-77579463D01*
X110548815Y-77658815D01*
X110469463Y-77755506D01*
X110410498Y-77865820D01*
X110374188Y-77985518D01*
X110361928Y-78110000D01*
X110360000Y-78110000D01*
X110360000Y-74730000D01*
X110361928Y-74730000D01*
X110374188Y-74854482D01*
X110410498Y-74974180D01*
X110469463Y-75084494D01*
X110548815Y-75181185D01*
X110645506Y-75260537D01*
X110755820Y-75319502D01*
X110875518Y-75355812D01*
X111000000Y-75368072D01*
X111564250Y-75365000D01*
X111723000Y-75206250D01*
X111723000Y-74007000D01*
X111977000Y-74007000D01*
X111977000Y-75206250D01*
X112135750Y-75365000D01*
X112700000Y-75368072D01*
X112824482Y-75355812D01*
X112944180Y-75319502D01*
X113054494Y-75260537D01*
X113151185Y-75181185D01*
X113230537Y-75084494D01*
X113289502Y-74974180D01*
X113325812Y-74854482D01*
X113338072Y-74730000D01*
X113335000Y-74165750D01*
X113176250Y-74007000D01*
X111977000Y-74007000D01*
X111723000Y-74007000D01*
X110523750Y-74007000D01*
X110365000Y-74165750D01*
X110361928Y-74730000D01*
X110360000Y-74730000D01*
X110360000Y-73030000D01*
X110361928Y-73030000D01*
X110365000Y-73594250D01*
X110523750Y-73753000D01*
X111723000Y-73753000D01*
X111723000Y-72553750D01*
X111977000Y-72553750D01*
X111977000Y-73753000D01*
X113176250Y-73753000D01*
X113335000Y-73594250D01*
X113338072Y-73030000D01*
X113325812Y-72905518D01*
X113289502Y-72785820D01*
X113230537Y-72675506D01*
X113151185Y-72578815D01*
X113054494Y-72499463D01*
X112944180Y-72440498D01*
X112824482Y-72404188D01*
X112700000Y-72391928D01*
X112135750Y-72395000D01*
X111977000Y-72553750D01*
X111723000Y-72553750D01*
X111564250Y-72395000D01*
X111000000Y-72391928D01*
X110875518Y-72404188D01*
X110755820Y-72440498D01*
X110645506Y-72499463D01*
X110548815Y-72578815D01*
X110469463Y-72675506D01*
X110410498Y-72785820D01*
X110374188Y-72905518D01*
X110361928Y-73030000D01*
X110360000Y-73030000D01*
X110360000Y-71317000D01*
X115462673Y-71317000D01*
X115461928Y-71375000D01*
G37*
X115461928Y-71375000D02*
X115474188Y-71499482D01*
X115510498Y-71619180D01*
X115569463Y-71729494D01*
X115648815Y-71826185D01*
X115745506Y-71905537D01*
X115855820Y-71964502D01*
X115975518Y-72000812D01*
X116100000Y-72013072D01*
X116289250Y-72010000D01*
X116448000Y-71851250D01*
X116448000Y-71317000D01*
X116702000Y-71317000D01*
X116702000Y-71851250D01*
X116860750Y-72010000D01*
X117050000Y-72013072D01*
X117174482Y-72000812D01*
X117294180Y-71964502D01*
X117327823Y-71946519D01*
X117370820Y-71969502D01*
X117490518Y-72005812D01*
X117615000Y-72018072D01*
X117804250Y-72015000D01*
X117963000Y-71856250D01*
X117963000Y-71317000D01*
X118217000Y-71317000D01*
X118217000Y-71856250D01*
X118375750Y-72015000D01*
X118493000Y-72016903D01*
X118493000Y-88540000D01*
X110360000Y-88540000D01*
X110360000Y-78110000D01*
X110361928Y-78110000D01*
X110361928Y-79810000D01*
X110374188Y-79934482D01*
X110410498Y-80054180D01*
X110469463Y-80164494D01*
X110548815Y-80261185D01*
X110645506Y-80340537D01*
X110755820Y-80399502D01*
X110875518Y-80435812D01*
X111000000Y-80448072D01*
X112700000Y-80448072D01*
X112824482Y-80435812D01*
X112944180Y-80399502D01*
X113054494Y-80340537D01*
X113151185Y-80261185D01*
X113230537Y-80164494D01*
X113289502Y-80054180D01*
X113325812Y-79934482D01*
X113338072Y-79810000D01*
X113338072Y-78110000D01*
X113325812Y-77985518D01*
X113289502Y-77865820D01*
X113230537Y-77755506D01*
X113151185Y-77658815D01*
X113054494Y-77579463D01*
X112944180Y-77520498D01*
X112824482Y-77484188D01*
X112700000Y-77471928D01*
X111000000Y-77471928D01*
X110875518Y-77484188D01*
X110755820Y-77520498D01*
X110645506Y-77579463D01*
X110548815Y-77658815D01*
X110469463Y-77755506D01*
X110410498Y-77865820D01*
X110374188Y-77985518D01*
X110361928Y-78110000D01*
X110360000Y-78110000D01*
X110360000Y-74730000D01*
X110361928Y-74730000D01*
X110374188Y-74854482D01*
X110410498Y-74974180D01*
X110469463Y-75084494D01*
X110548815Y-75181185D01*
X110645506Y-75260537D01*
X110755820Y-75319502D01*
X110875518Y-75355812D01*
X111000000Y-75368072D01*
X111564250Y-75365000D01*
X111723000Y-75206250D01*
X111723000Y-74007000D01*
X111977000Y-74007000D01*
X111977000Y-75206250D01*
X112135750Y-75365000D01*
X112700000Y-75368072D01*
X112824482Y-75355812D01*
X112944180Y-75319502D01*
X113054494Y-75260537D01*
X113151185Y-75181185D01*
X113230537Y-75084494D01*
X113289502Y-74974180D01*
X113325812Y-74854482D01*
X113338072Y-74730000D01*
X113335000Y-74165750D01*
X113176250Y-74007000D01*
X111977000Y-74007000D01*
X111723000Y-74007000D01*
X110523750Y-74007000D01*
X110365000Y-74165750D01*
X110361928Y-74730000D01*
X110360000Y-74730000D01*
X110360000Y-73030000D01*
X110361928Y-73030000D01*
X110365000Y-73594250D01*
X110523750Y-73753000D01*
X111723000Y-73753000D01*
X111723000Y-72553750D01*
X111977000Y-72553750D01*
X111977000Y-73753000D01*
X113176250Y-73753000D01*
X113335000Y-73594250D01*
X113338072Y-73030000D01*
X113325812Y-72905518D01*
X113289502Y-72785820D01*
X113230537Y-72675506D01*
X113151185Y-72578815D01*
X113054494Y-72499463D01*
X112944180Y-72440498D01*
X112824482Y-72404188D01*
X112700000Y-72391928D01*
X112135750Y-72395000D01*
X111977000Y-72553750D01*
X111723000Y-72553750D01*
X111564250Y-72395000D01*
X111000000Y-72391928D01*
X110875518Y-72404188D01*
X110755820Y-72440498D01*
X110645506Y-72499463D01*
X110548815Y-72578815D01*
X110469463Y-72675506D01*
X110410498Y-72785820D01*
X110374188Y-72905518D01*
X110361928Y-73030000D01*
X110360000Y-73030000D01*
X110360000Y-71317000D01*
X115462673Y-71317000D01*
X115461928Y-71375000D01*
G36*
X121573000Y-69393000D02*
G01*
X119200029Y-69393000D01*
X119200000Y-69390750D01*
X119041250Y-69232000D01*
X118217000Y-69232000D01*
X118217000Y-69252000D01*
X117963000Y-69252000D01*
X117963000Y-69232000D01*
X117531250Y-69232000D01*
X117526250Y-69227000D01*
X116702000Y-69227000D01*
X116702000Y-69247000D01*
X116448000Y-69247000D01*
X116448000Y-69227000D01*
X115623750Y-69227000D01*
X115465000Y-69385750D01*
X115464907Y-69393000D01*
X114157000Y-69393000D01*
X114157000Y-68575000D01*
X115461928Y-68575000D01*
X115465000Y-68814250D01*
X115623750Y-68973000D01*
X116448000Y-68973000D01*
X116448000Y-68098750D01*
X116702000Y-68098750D01*
X116702000Y-68973000D01*
X117133750Y-68973000D01*
X117138750Y-68978000D01*
X117963000Y-68978000D01*
X117963000Y-68103750D01*
X118217000Y-68103750D01*
X118217000Y-68978000D01*
X119041250Y-68978000D01*
X119200000Y-68819250D01*
X119203072Y-68580000D01*
X119190812Y-68455518D01*
X119154502Y-68335820D01*
X119095537Y-68225506D01*
X119016185Y-68128815D01*
X118919494Y-68049463D01*
X118809180Y-67990498D01*
X118689482Y-67954188D01*
X118565000Y-67941928D01*
X118375750Y-67945000D01*
X118217000Y-68103750D01*
X117963000Y-68103750D01*
X117804250Y-67945000D01*
X117615000Y-67941928D01*
X117490518Y-67954188D01*
X117370820Y-67990498D01*
X117337177Y-68008481D01*
X117294180Y-67985498D01*
X117174482Y-67949188D01*
X117050000Y-67936928D01*
X116860750Y-67940000D01*
X116702000Y-68098750D01*
X116448000Y-68098750D01*
X116289250Y-67940000D01*
X116100000Y-67936928D01*
X115975518Y-67949188D01*
X115855820Y-67985498D01*
X115745506Y-68044463D01*
X115648815Y-68123815D01*
X115569463Y-68220506D01*
X115510498Y-68330820D01*
X115474188Y-68450518D01*
X115461928Y-68575000D01*
X114157000Y-68575000D01*
X114157000Y-64860000D01*
X121573000Y-64860000D01*
X121573000Y-69393000D01*
G37*
X121573000Y-69393000D02*
X119200029Y-69393000D01*
X119200000Y-69390750D01*
X119041250Y-69232000D01*
X118217000Y-69232000D01*
X118217000Y-69252000D01*
X117963000Y-69252000D01*
X117963000Y-69232000D01*
X117531250Y-69232000D01*
X117526250Y-69227000D01*
X116702000Y-69227000D01*
X116702000Y-69247000D01*
X116448000Y-69247000D01*
X116448000Y-69227000D01*
X115623750Y-69227000D01*
X115465000Y-69385750D01*
X115464907Y-69393000D01*
X114157000Y-69393000D01*
X114157000Y-68575000D01*
X115461928Y-68575000D01*
X115465000Y-68814250D01*
X115623750Y-68973000D01*
X116448000Y-68973000D01*
X116448000Y-68098750D01*
X116702000Y-68098750D01*
X116702000Y-68973000D01*
X117133750Y-68973000D01*
X117138750Y-68978000D01*
X117963000Y-68978000D01*
X117963000Y-68103750D01*
X118217000Y-68103750D01*
X118217000Y-68978000D01*
X119041250Y-68978000D01*
X119200000Y-68819250D01*
X119203072Y-68580000D01*
X119190812Y-68455518D01*
X119154502Y-68335820D01*
X119095537Y-68225506D01*
X119016185Y-68128815D01*
X118919494Y-68049463D01*
X118809180Y-67990498D01*
X118689482Y-67954188D01*
X118565000Y-67941928D01*
X118375750Y-67945000D01*
X118217000Y-68103750D01*
X117963000Y-68103750D01*
X117804250Y-67945000D01*
X117615000Y-67941928D01*
X117490518Y-67954188D01*
X117370820Y-67990498D01*
X117337177Y-68008481D01*
X117294180Y-67985498D01*
X117174482Y-67949188D01*
X117050000Y-67936928D01*
X116860750Y-67940000D01*
X116702000Y-68098750D01*
X116448000Y-68098750D01*
X116289250Y-67940000D01*
X116100000Y-67936928D01*
X115975518Y-67949188D01*
X115855820Y-67985498D01*
X115745506Y-68044463D01*
X115648815Y-68123815D01*
X115569463Y-68220506D01*
X115510498Y-68330820D01*
X115474188Y-68450518D01*
X115461928Y-68575000D01*
X114157000Y-68575000D01*
X114157000Y-64860000D01*
X121573000Y-64860000D01*
X121573000Y-69393000D01*
G36*
X125653000Y-72603394D02*
G01*
X121499803Y-68450197D01*
X121480557Y-68434403D01*
X121458601Y-68422667D01*
X121434776Y-68415440D01*
X121410000Y-68413000D01*
X121385224Y-68415440D01*
X121361399Y-68422667D01*
X121339443Y-68434403D01*
X121320197Y-68450197D01*
X121304403Y-68469443D01*
X121292667Y-68491399D01*
X121285440Y-68515224D01*
X121283000Y-68540000D01*
X121283000Y-68683000D01*
X121237000Y-68683000D01*
X121237000Y-64860000D01*
X125653000Y-64860000D01*
X125653000Y-72603394D01*
G37*
X125653000Y-72603394D02*
X121499803Y-68450197D01*
X121480557Y-68434403D01*
X121458601Y-68422667D01*
X121434776Y-68415440D01*
X121410000Y-68413000D01*
X121385224Y-68415440D01*
X121361399Y-68422667D01*
X121339443Y-68434403D01*
X121320197Y-68450197D01*
X121304403Y-68469443D01*
X121292667Y-68491399D01*
X121285440Y-68515224D01*
X121283000Y-68540000D01*
X121283000Y-68683000D01*
X121237000Y-68683000D01*
X121237000Y-64860000D01*
X125653000Y-64860000D01*
X125653000Y-72603394D01*
G36*
X125573000Y-74185799D02*
G01*
X125471498Y-74185799D01*
X125471498Y-74344547D01*
X125312750Y-74185799D01*
X125269964Y-74183301D01*
X125145074Y-74190271D01*
X125023944Y-74221471D01*
X124911228Y-74275703D01*
X124811258Y-74350883D01*
X124727876Y-74444122D01*
X124664286Y-74551836D01*
X124622931Y-74669886D01*
X124607900Y-74763649D01*
X124639648Y-74795397D01*
X124607900Y-74795397D01*
X124607900Y-74903000D01*
X124302766Y-74903000D01*
X124224339Y-74887400D01*
X124020461Y-74887400D01*
X123942034Y-74903000D01*
X123097000Y-74903000D01*
X123097000Y-69847000D01*
X125573000Y-69847000D01*
X125573000Y-74185799D01*
G37*
X125573000Y-74185799D02*
X125471498Y-74185799D01*
X125471498Y-74344547D01*
X125312750Y-74185799D01*
X125269964Y-74183301D01*
X125145074Y-74190271D01*
X125023944Y-74221471D01*
X124911228Y-74275703D01*
X124811258Y-74350883D01*
X124727876Y-74444122D01*
X124664286Y-74551836D01*
X124622931Y-74669886D01*
X124607900Y-74763649D01*
X124639648Y-74795397D01*
X124607900Y-74795397D01*
X124607900Y-74903000D01*
X124302766Y-74903000D01*
X124224339Y-74887400D01*
X124020461Y-74887400D01*
X123942034Y-74903000D01*
X123097000Y-74903000D01*
X123097000Y-69847000D01*
X125573000Y-69847000D01*
X125573000Y-74185799D01*
G36*
X123623000Y-72313394D02*
G01*
X120404026Y-69094420D01*
X123623000Y-67997451D01*
X123623000Y-72313394D01*
G37*
X123623000Y-72313394D02*
X120404026Y-69094420D01*
X123623000Y-67997451D01*
X123623000Y-72313394D01*
G36*
X115465000Y-71135750D02*
G01*
X115461928Y-71375000D01*
X115474188Y-71499482D01*
X115510498Y-71619180D01*
X115569463Y-71729494D01*
X115648815Y-71826185D01*
X115745506Y-71905537D01*
X115855820Y-71964502D01*
X115975518Y-72000812D01*
X116100000Y-72013072D01*
X116289250Y-72010000D01*
X116447998Y-71851252D01*
X116447998Y-72010000D01*
X116553000Y-72010000D01*
X116553000Y-72286937D01*
X113896821Y-71616093D01*
X114005401Y-71037000D01*
X115563750Y-71037000D01*
X115465000Y-71135750D01*
G37*
X115465000Y-71135750D02*
X115461928Y-71375000D01*
X115474188Y-71499482D01*
X115510498Y-71619180D01*
X115569463Y-71729494D01*
X115648815Y-71826185D01*
X115745506Y-71905537D01*
X115855820Y-71964502D01*
X115975518Y-72000812D01*
X116100000Y-72013072D01*
X116289250Y-72010000D01*
X116447998Y-71851252D01*
X116447998Y-72010000D01*
X116553000Y-72010000D01*
X116553000Y-72286937D01*
X113896821Y-71616093D01*
X114005401Y-71037000D01*
X115563750Y-71037000D01*
X115465000Y-71135750D01*
M02*
