G04 #@! TF.GenerationSoftware,KiCad,Pcbnew,(5.1.6)-1*
G04 #@! TF.CreationDate,2020-05-26T15:20:33+09:00*
G04 #@! TF.ProjectId,mic5332,6d696335-3333-4322-9e6b-696361645f70,rev?*
G04 #@! TF.SameCoordinates,Original*
G04 #@! TF.FileFunction,Copper,L2,Bot*
G04 #@! TF.FilePolarity,Positive*
%FSLAX46Y46*%
G04 Gerber Fmt 4.6, Leading zero omitted, Abs format (unit mm)*
G04 Created by KiCad (PCBNEW (5.1.6)-1) date 2020-05-26 15:20:33*
%MOMM*%
%LPD*%
G01*
G04 APERTURE LIST*
G04 #@! TA.AperFunction,ComponentPad*
%ADD10C,1.400000*%
G04 #@! TD*
G04 #@! TA.AperFunction,ComponentPad*
%ADD11R,1.700000X1.700000*%
G04 #@! TD*
G04 #@! TA.AperFunction,ViaPad*
%ADD12C,0.400000*%
G04 #@! TD*
G04 #@! TA.AperFunction,ViaPad*
%ADD13C,0.800000*%
G04 #@! TD*
G04 #@! TA.AperFunction,Conductor*
%ADD14C,0.250000*%
G04 #@! TD*
G04 #@! TA.AperFunction,Conductor*
%ADD15C,0.254000*%
G04 #@! TD*
G04 APERTURE END LIST*
D10*
X127650000Y-84050000D03*
X130190000Y-84050000D03*
X123690000Y-84050000D03*
X121150000Y-84050000D03*
D11*
X111830000Y-68460000D03*
X130190000Y-87050000D03*
X121150000Y-87050000D03*
X111850000Y-73880000D03*
X137500000Y-78960000D03*
X111850000Y-78960000D03*
X137500000Y-68800000D03*
X137500000Y-73880000D03*
D12*
X126576400Y-75976400D03*
D13*
X133010000Y-65740000D03*
X128850000Y-65740000D03*
X131100000Y-81150000D03*
X128800000Y-76450000D03*
X120810000Y-70960000D03*
X121370000Y-79150000D03*
X126270000Y-79150000D03*
X127950000Y-77550000D03*
X124122400Y-75922400D03*
X121800000Y-72550000D03*
D14*
X131100000Y-81150000D02*
X131100000Y-81150000D01*
X128800000Y-76450000D02*
X128800000Y-78850000D01*
X128800000Y-78850000D02*
X131100000Y-81150000D01*
X120810000Y-70960000D02*
X120810000Y-78590000D01*
X120810000Y-78590000D02*
X121370000Y-79150000D01*
X121370000Y-79150000D02*
X121370000Y-79150000D01*
X121370000Y-79150000D02*
X121935685Y-79150000D01*
X121935685Y-79150000D02*
X126270000Y-79150000D01*
X126270000Y-79150000D02*
X126270000Y-79150000D01*
X130190000Y-82160000D02*
X130190000Y-84050000D01*
X127950000Y-77550000D02*
X127950000Y-79920000D01*
X127950000Y-79920000D02*
X130190000Y-82160000D01*
X130190000Y-84050000D02*
X130190000Y-87050000D01*
X122630000Y-87100000D02*
X121150000Y-87100000D01*
X123690000Y-84050000D02*
X123690000Y-86040000D01*
X123690000Y-86040000D02*
X122630000Y-87100000D01*
X122800000Y-72550000D02*
X121800000Y-72550000D01*
X123450000Y-73200000D02*
X122800000Y-72550000D01*
X123450000Y-75815685D02*
X123450000Y-73200000D01*
X124122400Y-75922400D02*
X123556715Y-75922400D01*
X123556715Y-75922400D02*
X123450000Y-75815685D01*
X111850000Y-78151777D02*
X111850000Y-78960000D01*
X119766778Y-70234999D02*
X111850000Y-78151777D01*
X121158001Y-70234999D02*
X119766778Y-70234999D01*
X121800000Y-70876998D02*
X121158001Y-70234999D01*
X121800000Y-72550000D02*
X121800000Y-70876998D01*
D15*
G36*
X139040000Y-88540000D02*
G01*
X110360000Y-88540000D01*
X110360000Y-86200000D01*
X119661928Y-86200000D01*
X119661928Y-87900000D01*
X119674188Y-88024482D01*
X119710498Y-88144180D01*
X119769463Y-88254494D01*
X119848815Y-88351185D01*
X119945506Y-88430537D01*
X120055820Y-88489502D01*
X120175518Y-88525812D01*
X120300000Y-88538072D01*
X122000000Y-88538072D01*
X122124482Y-88525812D01*
X122244180Y-88489502D01*
X122354494Y-88430537D01*
X122451185Y-88351185D01*
X122530537Y-88254494D01*
X122589502Y-88144180D01*
X122625812Y-88024482D01*
X122638072Y-87900000D01*
X122638072Y-87862881D01*
X122667322Y-87860000D01*
X122667333Y-87860000D01*
X122778986Y-87849003D01*
X122922247Y-87805546D01*
X123054276Y-87734974D01*
X123170001Y-87640001D01*
X123193803Y-87610998D01*
X124201008Y-86603795D01*
X124230001Y-86580001D01*
X124253795Y-86551008D01*
X124253799Y-86551004D01*
X124324973Y-86464277D01*
X124324974Y-86464276D01*
X124395546Y-86332247D01*
X124439003Y-86188986D01*
X124450000Y-86077333D01*
X124450000Y-86077324D01*
X124453676Y-86040001D01*
X124450000Y-86002678D01*
X124450000Y-85147775D01*
X124541013Y-85086962D01*
X124656706Y-84971269D01*
X126908336Y-84971269D01*
X126967797Y-85205037D01*
X127206242Y-85315934D01*
X127461740Y-85378183D01*
X127724473Y-85389390D01*
X127984344Y-85349125D01*
X128231366Y-85258935D01*
X128332203Y-85205037D01*
X128391664Y-84971269D01*
X127650000Y-84229605D01*
X126908336Y-84971269D01*
X124656706Y-84971269D01*
X124726962Y-84901013D01*
X124873061Y-84682359D01*
X124973696Y-84439405D01*
X125025000Y-84181486D01*
X125025000Y-84124473D01*
X126310610Y-84124473D01*
X126350875Y-84384344D01*
X126441065Y-84631366D01*
X126494963Y-84732203D01*
X126728731Y-84791664D01*
X127470395Y-84050000D01*
X126728731Y-83308336D01*
X126494963Y-83367797D01*
X126384066Y-83606242D01*
X126321817Y-83861740D01*
X126310610Y-84124473D01*
X125025000Y-84124473D01*
X125025000Y-83918514D01*
X124973696Y-83660595D01*
X124873061Y-83417641D01*
X124726962Y-83198987D01*
X124656706Y-83128731D01*
X126908336Y-83128731D01*
X127650000Y-83870395D01*
X128391664Y-83128731D01*
X128332203Y-82894963D01*
X128093758Y-82784066D01*
X127838260Y-82721817D01*
X127575527Y-82710610D01*
X127315656Y-82750875D01*
X127068634Y-82841065D01*
X126967797Y-82894963D01*
X126908336Y-83128731D01*
X124656706Y-83128731D01*
X124541013Y-83013038D01*
X124322359Y-82866939D01*
X124079405Y-82766304D01*
X123821486Y-82715000D01*
X123558514Y-82715000D01*
X123300595Y-82766304D01*
X123057641Y-82866939D01*
X122838987Y-83013038D01*
X122653038Y-83198987D01*
X122506939Y-83417641D01*
X122418379Y-83631444D01*
X122358935Y-83468634D01*
X122305037Y-83367797D01*
X122071269Y-83308336D01*
X121329605Y-84050000D01*
X122071269Y-84791664D01*
X122305037Y-84732203D01*
X122415934Y-84493758D01*
X122420706Y-84474173D01*
X122506939Y-84682359D01*
X122653038Y-84901013D01*
X122838987Y-85086962D01*
X122930001Y-85147775D01*
X122930001Y-85725197D01*
X122615075Y-86040123D01*
X122589502Y-85955820D01*
X122530537Y-85845506D01*
X122451185Y-85748815D01*
X122354494Y-85669463D01*
X122244180Y-85610498D01*
X122124482Y-85574188D01*
X122000000Y-85561928D01*
X120300000Y-85561928D01*
X120175518Y-85574188D01*
X120055820Y-85610498D01*
X119945506Y-85669463D01*
X119848815Y-85748815D01*
X119769463Y-85845506D01*
X119710498Y-85955820D01*
X119674188Y-86075518D01*
X119661928Y-86200000D01*
X110360000Y-86200000D01*
X110360000Y-84971269D01*
X120408336Y-84971269D01*
X120467797Y-85205037D01*
X120706242Y-85315934D01*
X120961740Y-85378183D01*
X121224473Y-85389390D01*
X121484344Y-85349125D01*
X121731366Y-85258935D01*
X121832203Y-85205037D01*
X121891664Y-84971269D01*
X121150000Y-84229605D01*
X120408336Y-84971269D01*
X110360000Y-84971269D01*
X110360000Y-84124473D01*
X119810610Y-84124473D01*
X119850875Y-84384344D01*
X119941065Y-84631366D01*
X119994963Y-84732203D01*
X120228731Y-84791664D01*
X120970395Y-84050000D01*
X120228731Y-83308336D01*
X119994963Y-83367797D01*
X119884066Y-83606242D01*
X119821817Y-83861740D01*
X119810610Y-84124473D01*
X110360000Y-84124473D01*
X110360000Y-83128731D01*
X120408336Y-83128731D01*
X121150000Y-83870395D01*
X121891664Y-83128731D01*
X121832203Y-82894963D01*
X121593758Y-82784066D01*
X121338260Y-82721817D01*
X121075527Y-82710610D01*
X120815656Y-82750875D01*
X120568634Y-82841065D01*
X120467797Y-82894963D01*
X120408336Y-83128731D01*
X110360000Y-83128731D01*
X110360000Y-78110000D01*
X110361928Y-78110000D01*
X110361928Y-79810000D01*
X110374188Y-79934482D01*
X110410498Y-80054180D01*
X110469463Y-80164494D01*
X110548815Y-80261185D01*
X110645506Y-80340537D01*
X110755820Y-80399502D01*
X110875518Y-80435812D01*
X111000000Y-80448072D01*
X112700000Y-80448072D01*
X112824482Y-80435812D01*
X112944180Y-80399502D01*
X113054494Y-80340537D01*
X113151185Y-80261185D01*
X113230537Y-80164494D01*
X113289502Y-80054180D01*
X113325812Y-79934482D01*
X113338072Y-79810000D01*
X113338072Y-78110000D01*
X113325812Y-77985518D01*
X113289502Y-77865820D01*
X113262073Y-77814505D01*
X119814759Y-71261820D01*
X119814774Y-71261898D01*
X119892795Y-71450256D01*
X120006063Y-71619774D01*
X120050000Y-71663711D01*
X120050001Y-78552668D01*
X120046324Y-78590000D01*
X120060998Y-78738985D01*
X120104454Y-78882246D01*
X120175026Y-79014276D01*
X120234710Y-79087000D01*
X120270000Y-79130001D01*
X120298998Y-79153799D01*
X120335000Y-79189801D01*
X120335000Y-79251939D01*
X120374774Y-79451898D01*
X120452795Y-79640256D01*
X120566063Y-79809774D01*
X120710226Y-79953937D01*
X120879744Y-80067205D01*
X121068102Y-80145226D01*
X121268061Y-80185000D01*
X121471939Y-80185000D01*
X121671898Y-80145226D01*
X121860256Y-80067205D01*
X122029774Y-79953937D01*
X122073711Y-79910000D01*
X125566289Y-79910000D01*
X125610226Y-79953937D01*
X125779744Y-80067205D01*
X125968102Y-80145226D01*
X126168061Y-80185000D01*
X126371939Y-80185000D01*
X126571898Y-80145226D01*
X126760256Y-80067205D01*
X126929774Y-79953937D01*
X127073937Y-79809774D01*
X127187205Y-79640256D01*
X127190001Y-79633506D01*
X127190001Y-79882668D01*
X127186324Y-79920000D01*
X127200998Y-80068985D01*
X127244454Y-80212246D01*
X127315026Y-80344276D01*
X127386201Y-80431002D01*
X127410000Y-80460001D01*
X127438998Y-80483799D01*
X129430000Y-82474803D01*
X129430000Y-82952225D01*
X129338987Y-83013038D01*
X129153038Y-83198987D01*
X129006939Y-83417641D01*
X128918379Y-83631444D01*
X128858935Y-83468634D01*
X128805037Y-83367797D01*
X128571269Y-83308336D01*
X127829605Y-84050000D01*
X128571269Y-84791664D01*
X128805037Y-84732203D01*
X128915934Y-84493758D01*
X128920706Y-84474173D01*
X129006939Y-84682359D01*
X129153038Y-84901013D01*
X129338987Y-85086962D01*
X129430000Y-85147775D01*
X129430001Y-85561928D01*
X129340000Y-85561928D01*
X129215518Y-85574188D01*
X129095820Y-85610498D01*
X128985506Y-85669463D01*
X128888815Y-85748815D01*
X128809463Y-85845506D01*
X128750498Y-85955820D01*
X128714188Y-86075518D01*
X128701928Y-86200000D01*
X128701928Y-87900000D01*
X128714188Y-88024482D01*
X128750498Y-88144180D01*
X128809463Y-88254494D01*
X128888815Y-88351185D01*
X128985506Y-88430537D01*
X129095820Y-88489502D01*
X129215518Y-88525812D01*
X129340000Y-88538072D01*
X131040000Y-88538072D01*
X131164482Y-88525812D01*
X131284180Y-88489502D01*
X131394494Y-88430537D01*
X131491185Y-88351185D01*
X131570537Y-88254494D01*
X131629502Y-88144180D01*
X131665812Y-88024482D01*
X131678072Y-87900000D01*
X131678072Y-86200000D01*
X131665812Y-86075518D01*
X131629502Y-85955820D01*
X131570537Y-85845506D01*
X131491185Y-85748815D01*
X131394494Y-85669463D01*
X131284180Y-85610498D01*
X131164482Y-85574188D01*
X131040000Y-85561928D01*
X130950000Y-85561928D01*
X130950000Y-85147775D01*
X131041013Y-85086962D01*
X131226962Y-84901013D01*
X131373061Y-84682359D01*
X131473696Y-84439405D01*
X131525000Y-84181486D01*
X131525000Y-83918514D01*
X131473696Y-83660595D01*
X131373061Y-83417641D01*
X131226962Y-83198987D01*
X131041013Y-83013038D01*
X130950000Y-82952225D01*
X130950000Y-82197322D01*
X130952114Y-82175861D01*
X130998061Y-82185000D01*
X131201939Y-82185000D01*
X131401898Y-82145226D01*
X131590256Y-82067205D01*
X131759774Y-81953937D01*
X131903937Y-81809774D01*
X132017205Y-81640256D01*
X132095226Y-81451898D01*
X132135000Y-81251939D01*
X132135000Y-81048061D01*
X132095226Y-80848102D01*
X132017205Y-80659744D01*
X131903937Y-80490226D01*
X131759774Y-80346063D01*
X131590256Y-80232795D01*
X131401898Y-80154774D01*
X131201939Y-80115000D01*
X131139802Y-80115000D01*
X130834802Y-79810000D01*
X136011928Y-79810000D01*
X136024188Y-79934482D01*
X136060498Y-80054180D01*
X136119463Y-80164494D01*
X136198815Y-80261185D01*
X136295506Y-80340537D01*
X136405820Y-80399502D01*
X136525518Y-80435812D01*
X136650000Y-80448072D01*
X137214250Y-80445000D01*
X137373000Y-80286250D01*
X137373000Y-79087000D01*
X137627000Y-79087000D01*
X137627000Y-80286250D01*
X137785750Y-80445000D01*
X138350000Y-80448072D01*
X138474482Y-80435812D01*
X138594180Y-80399502D01*
X138704494Y-80340537D01*
X138801185Y-80261185D01*
X138880537Y-80164494D01*
X138939502Y-80054180D01*
X138975812Y-79934482D01*
X138988072Y-79810000D01*
X138985000Y-79245750D01*
X138826250Y-79087000D01*
X137627000Y-79087000D01*
X137373000Y-79087000D01*
X136173750Y-79087000D01*
X136015000Y-79245750D01*
X136011928Y-79810000D01*
X130834802Y-79810000D01*
X129560000Y-78535199D01*
X129560000Y-78110000D01*
X136011928Y-78110000D01*
X136015000Y-78674250D01*
X136173750Y-78833000D01*
X137373000Y-78833000D01*
X137373000Y-77633750D01*
X137627000Y-77633750D01*
X137627000Y-78833000D01*
X138826250Y-78833000D01*
X138985000Y-78674250D01*
X138988072Y-78110000D01*
X138975812Y-77985518D01*
X138939502Y-77865820D01*
X138880537Y-77755506D01*
X138801185Y-77658815D01*
X138704494Y-77579463D01*
X138594180Y-77520498D01*
X138474482Y-77484188D01*
X138350000Y-77471928D01*
X137785750Y-77475000D01*
X137627000Y-77633750D01*
X137373000Y-77633750D01*
X137214250Y-77475000D01*
X136650000Y-77471928D01*
X136525518Y-77484188D01*
X136405820Y-77520498D01*
X136295506Y-77579463D01*
X136198815Y-77658815D01*
X136119463Y-77755506D01*
X136060498Y-77865820D01*
X136024188Y-77985518D01*
X136011928Y-78110000D01*
X129560000Y-78110000D01*
X129560000Y-77153711D01*
X129603937Y-77109774D01*
X129717205Y-76940256D01*
X129795226Y-76751898D01*
X129835000Y-76551939D01*
X129835000Y-76348061D01*
X129795226Y-76148102D01*
X129717205Y-75959744D01*
X129603937Y-75790226D01*
X129459774Y-75646063D01*
X129290256Y-75532795D01*
X129101898Y-75454774D01*
X128901939Y-75415000D01*
X128698061Y-75415000D01*
X128498102Y-75454774D01*
X128309744Y-75532795D01*
X128140226Y-75646063D01*
X127996063Y-75790226D01*
X127882795Y-75959744D01*
X127804774Y-76148102D01*
X127765000Y-76348061D01*
X127765000Y-76531522D01*
X127648102Y-76554774D01*
X127459744Y-76632795D01*
X127290226Y-76746063D01*
X127146063Y-76890226D01*
X127032795Y-77059744D01*
X126954774Y-77248102D01*
X126915000Y-77448061D01*
X126915000Y-77651939D01*
X126954774Y-77851898D01*
X127032795Y-78040256D01*
X127146063Y-78209774D01*
X127190000Y-78253711D01*
X127190000Y-78666493D01*
X127187205Y-78659744D01*
X127073937Y-78490226D01*
X126929774Y-78346063D01*
X126760256Y-78232795D01*
X126571898Y-78154774D01*
X126371939Y-78115000D01*
X126168061Y-78115000D01*
X125968102Y-78154774D01*
X125779744Y-78232795D01*
X125610226Y-78346063D01*
X125566289Y-78390000D01*
X122073711Y-78390000D01*
X122029774Y-78346063D01*
X121860256Y-78232795D01*
X121671898Y-78154774D01*
X121570000Y-78134505D01*
X121570000Y-73559527D01*
X121698061Y-73585000D01*
X121901939Y-73585000D01*
X122101898Y-73545226D01*
X122290256Y-73467205D01*
X122459774Y-73353937D01*
X122494455Y-73319256D01*
X122690001Y-73514803D01*
X122690000Y-75778362D01*
X122686324Y-75815685D01*
X122690000Y-75853007D01*
X122690000Y-75853017D01*
X122700997Y-75964670D01*
X122744454Y-76107931D01*
X122815026Y-76239961D01*
X122854871Y-76288511D01*
X122909999Y-76355686D01*
X122939003Y-76379489D01*
X122992911Y-76433397D01*
X123016714Y-76462401D01*
X123132439Y-76557374D01*
X123264468Y-76627946D01*
X123407676Y-76671387D01*
X123462626Y-76726337D01*
X123632144Y-76839605D01*
X123820502Y-76917626D01*
X124020461Y-76957400D01*
X124224339Y-76957400D01*
X124424298Y-76917626D01*
X124612656Y-76839605D01*
X124782174Y-76726337D01*
X124926337Y-76582174D01*
X125039605Y-76412656D01*
X125117626Y-76224298D01*
X125157400Y-76024339D01*
X125157400Y-75820461D01*
X125117626Y-75620502D01*
X125039605Y-75432144D01*
X124926337Y-75262626D01*
X124782174Y-75118463D01*
X124612656Y-75005195D01*
X124424298Y-74927174D01*
X124224339Y-74887400D01*
X124210000Y-74887400D01*
X124210000Y-73237323D01*
X124213676Y-73200000D01*
X124210000Y-73162677D01*
X124210000Y-73162667D01*
X124199003Y-73051014D01*
X124192629Y-73030000D01*
X136011928Y-73030000D01*
X136011928Y-74730000D01*
X136024188Y-74854482D01*
X136060498Y-74974180D01*
X136119463Y-75084494D01*
X136198815Y-75181185D01*
X136295506Y-75260537D01*
X136405820Y-75319502D01*
X136525518Y-75355812D01*
X136650000Y-75368072D01*
X138350000Y-75368072D01*
X138474482Y-75355812D01*
X138594180Y-75319502D01*
X138704494Y-75260537D01*
X138801185Y-75181185D01*
X138880537Y-75084494D01*
X138939502Y-74974180D01*
X138975812Y-74854482D01*
X138988072Y-74730000D01*
X138988072Y-73030000D01*
X138975812Y-72905518D01*
X138939502Y-72785820D01*
X138880537Y-72675506D01*
X138801185Y-72578815D01*
X138704494Y-72499463D01*
X138594180Y-72440498D01*
X138474482Y-72404188D01*
X138350000Y-72391928D01*
X136650000Y-72391928D01*
X136525518Y-72404188D01*
X136405820Y-72440498D01*
X136295506Y-72499463D01*
X136198815Y-72578815D01*
X136119463Y-72675506D01*
X136060498Y-72785820D01*
X136024188Y-72905518D01*
X136011928Y-73030000D01*
X124192629Y-73030000D01*
X124155546Y-72907753D01*
X124084974Y-72775724D01*
X123990001Y-72659999D01*
X123961002Y-72636200D01*
X123363803Y-72039002D01*
X123340001Y-72009999D01*
X123224276Y-71915026D01*
X123092247Y-71844454D01*
X122948986Y-71800997D01*
X122837333Y-71790000D01*
X122837322Y-71790000D01*
X122800000Y-71786324D01*
X122762678Y-71790000D01*
X122560000Y-71790000D01*
X122560000Y-70914323D01*
X122563676Y-70876998D01*
X122560000Y-70839673D01*
X122560000Y-70839665D01*
X122549003Y-70728012D01*
X122505546Y-70584751D01*
X122434974Y-70452722D01*
X122340001Y-70336997D01*
X122311002Y-70313198D01*
X121721804Y-69724001D01*
X121698002Y-69694998D01*
X121582277Y-69600025D01*
X121450248Y-69529453D01*
X121306987Y-69485996D01*
X121195334Y-69474999D01*
X121195323Y-69474999D01*
X121158001Y-69471323D01*
X121120679Y-69474999D01*
X119804101Y-69474999D01*
X119766778Y-69471323D01*
X119729455Y-69474999D01*
X119729445Y-69474999D01*
X119617792Y-69485996D01*
X119474531Y-69529453D01*
X119342502Y-69600025D01*
X119226777Y-69694998D01*
X119202979Y-69723996D01*
X111455048Y-77471928D01*
X111000000Y-77471928D01*
X110875518Y-77484188D01*
X110755820Y-77520498D01*
X110645506Y-77579463D01*
X110548815Y-77658815D01*
X110469463Y-77755506D01*
X110410498Y-77865820D01*
X110374188Y-77985518D01*
X110361928Y-78110000D01*
X110360000Y-78110000D01*
X110360000Y-74730000D01*
X110361928Y-74730000D01*
X110374188Y-74854482D01*
X110410498Y-74974180D01*
X110469463Y-75084494D01*
X110548815Y-75181185D01*
X110645506Y-75260537D01*
X110755820Y-75319502D01*
X110875518Y-75355812D01*
X111000000Y-75368072D01*
X111564250Y-75365000D01*
X111723000Y-75206250D01*
X111723000Y-74007000D01*
X111977000Y-74007000D01*
X111977000Y-75206250D01*
X112135750Y-75365000D01*
X112700000Y-75368072D01*
X112824482Y-75355812D01*
X112944180Y-75319502D01*
X113054494Y-75260537D01*
X113151185Y-75181185D01*
X113230537Y-75084494D01*
X113289502Y-74974180D01*
X113325812Y-74854482D01*
X113338072Y-74730000D01*
X113335000Y-74165750D01*
X113176250Y-74007000D01*
X111977000Y-74007000D01*
X111723000Y-74007000D01*
X110523750Y-74007000D01*
X110365000Y-74165750D01*
X110361928Y-74730000D01*
X110360000Y-74730000D01*
X110360000Y-73030000D01*
X110361928Y-73030000D01*
X110365000Y-73594250D01*
X110523750Y-73753000D01*
X111723000Y-73753000D01*
X111723000Y-72553750D01*
X111977000Y-72553750D01*
X111977000Y-73753000D01*
X113176250Y-73753000D01*
X113335000Y-73594250D01*
X113338072Y-73030000D01*
X113325812Y-72905518D01*
X113289502Y-72785820D01*
X113230537Y-72675506D01*
X113151185Y-72578815D01*
X113054494Y-72499463D01*
X112944180Y-72440498D01*
X112824482Y-72404188D01*
X112700000Y-72391928D01*
X112135750Y-72395000D01*
X111977000Y-72553750D01*
X111723000Y-72553750D01*
X111564250Y-72395000D01*
X111000000Y-72391928D01*
X110875518Y-72404188D01*
X110755820Y-72440498D01*
X110645506Y-72499463D01*
X110548815Y-72578815D01*
X110469463Y-72675506D01*
X110410498Y-72785820D01*
X110374188Y-72905518D01*
X110361928Y-73030000D01*
X110360000Y-73030000D01*
X110360000Y-69453642D01*
X110390498Y-69554180D01*
X110449463Y-69664494D01*
X110528815Y-69761185D01*
X110625506Y-69840537D01*
X110735820Y-69899502D01*
X110855518Y-69935812D01*
X110980000Y-69948072D01*
X112680000Y-69948072D01*
X112804482Y-69935812D01*
X112924180Y-69899502D01*
X113034494Y-69840537D01*
X113131185Y-69761185D01*
X113210537Y-69664494D01*
X113269502Y-69554180D01*
X113305812Y-69434482D01*
X113318072Y-69310000D01*
X113318072Y-67950000D01*
X136011928Y-67950000D01*
X136011928Y-69650000D01*
X136024188Y-69774482D01*
X136060498Y-69894180D01*
X136119463Y-70004494D01*
X136198815Y-70101185D01*
X136295506Y-70180537D01*
X136405820Y-70239502D01*
X136525518Y-70275812D01*
X136650000Y-70288072D01*
X138350000Y-70288072D01*
X138474482Y-70275812D01*
X138594180Y-70239502D01*
X138704494Y-70180537D01*
X138801185Y-70101185D01*
X138880537Y-70004494D01*
X138939502Y-69894180D01*
X138975812Y-69774482D01*
X138988072Y-69650000D01*
X138988072Y-67950000D01*
X138975812Y-67825518D01*
X138939502Y-67705820D01*
X138880537Y-67595506D01*
X138801185Y-67498815D01*
X138704494Y-67419463D01*
X138594180Y-67360498D01*
X138474482Y-67324188D01*
X138350000Y-67311928D01*
X136650000Y-67311928D01*
X136525518Y-67324188D01*
X136405820Y-67360498D01*
X136295506Y-67419463D01*
X136198815Y-67498815D01*
X136119463Y-67595506D01*
X136060498Y-67705820D01*
X136024188Y-67825518D01*
X136011928Y-67950000D01*
X113318072Y-67950000D01*
X113318072Y-67610000D01*
X113305812Y-67485518D01*
X113269502Y-67365820D01*
X113210537Y-67255506D01*
X113131185Y-67158815D01*
X113034494Y-67079463D01*
X112924180Y-67020498D01*
X112804482Y-66984188D01*
X112680000Y-66971928D01*
X110980000Y-66971928D01*
X110855518Y-66984188D01*
X110735820Y-67020498D01*
X110625506Y-67079463D01*
X110528815Y-67158815D01*
X110449463Y-67255506D01*
X110390498Y-67365820D01*
X110360000Y-67466358D01*
X110360000Y-64860000D01*
X139040001Y-64860000D01*
X139040000Y-88540000D01*
G37*
X139040000Y-88540000D02*
X110360000Y-88540000D01*
X110360000Y-86200000D01*
X119661928Y-86200000D01*
X119661928Y-87900000D01*
X119674188Y-88024482D01*
X119710498Y-88144180D01*
X119769463Y-88254494D01*
X119848815Y-88351185D01*
X119945506Y-88430537D01*
X120055820Y-88489502D01*
X120175518Y-88525812D01*
X120300000Y-88538072D01*
X122000000Y-88538072D01*
X122124482Y-88525812D01*
X122244180Y-88489502D01*
X122354494Y-88430537D01*
X122451185Y-88351185D01*
X122530537Y-88254494D01*
X122589502Y-88144180D01*
X122625812Y-88024482D01*
X122638072Y-87900000D01*
X122638072Y-87862881D01*
X122667322Y-87860000D01*
X122667333Y-87860000D01*
X122778986Y-87849003D01*
X122922247Y-87805546D01*
X123054276Y-87734974D01*
X123170001Y-87640001D01*
X123193803Y-87610998D01*
X124201008Y-86603795D01*
X124230001Y-86580001D01*
X124253795Y-86551008D01*
X124253799Y-86551004D01*
X124324973Y-86464277D01*
X124324974Y-86464276D01*
X124395546Y-86332247D01*
X124439003Y-86188986D01*
X124450000Y-86077333D01*
X124450000Y-86077324D01*
X124453676Y-86040001D01*
X124450000Y-86002678D01*
X124450000Y-85147775D01*
X124541013Y-85086962D01*
X124656706Y-84971269D01*
X126908336Y-84971269D01*
X126967797Y-85205037D01*
X127206242Y-85315934D01*
X127461740Y-85378183D01*
X127724473Y-85389390D01*
X127984344Y-85349125D01*
X128231366Y-85258935D01*
X128332203Y-85205037D01*
X128391664Y-84971269D01*
X127650000Y-84229605D01*
X126908336Y-84971269D01*
X124656706Y-84971269D01*
X124726962Y-84901013D01*
X124873061Y-84682359D01*
X124973696Y-84439405D01*
X125025000Y-84181486D01*
X125025000Y-84124473D01*
X126310610Y-84124473D01*
X126350875Y-84384344D01*
X126441065Y-84631366D01*
X126494963Y-84732203D01*
X126728731Y-84791664D01*
X127470395Y-84050000D01*
X126728731Y-83308336D01*
X126494963Y-83367797D01*
X126384066Y-83606242D01*
X126321817Y-83861740D01*
X126310610Y-84124473D01*
X125025000Y-84124473D01*
X125025000Y-83918514D01*
X124973696Y-83660595D01*
X124873061Y-83417641D01*
X124726962Y-83198987D01*
X124656706Y-83128731D01*
X126908336Y-83128731D01*
X127650000Y-83870395D01*
X128391664Y-83128731D01*
X128332203Y-82894963D01*
X128093758Y-82784066D01*
X127838260Y-82721817D01*
X127575527Y-82710610D01*
X127315656Y-82750875D01*
X127068634Y-82841065D01*
X126967797Y-82894963D01*
X126908336Y-83128731D01*
X124656706Y-83128731D01*
X124541013Y-83013038D01*
X124322359Y-82866939D01*
X124079405Y-82766304D01*
X123821486Y-82715000D01*
X123558514Y-82715000D01*
X123300595Y-82766304D01*
X123057641Y-82866939D01*
X122838987Y-83013038D01*
X122653038Y-83198987D01*
X122506939Y-83417641D01*
X122418379Y-83631444D01*
X122358935Y-83468634D01*
X122305037Y-83367797D01*
X122071269Y-83308336D01*
X121329605Y-84050000D01*
X122071269Y-84791664D01*
X122305037Y-84732203D01*
X122415934Y-84493758D01*
X122420706Y-84474173D01*
X122506939Y-84682359D01*
X122653038Y-84901013D01*
X122838987Y-85086962D01*
X122930001Y-85147775D01*
X122930001Y-85725197D01*
X122615075Y-86040123D01*
X122589502Y-85955820D01*
X122530537Y-85845506D01*
X122451185Y-85748815D01*
X122354494Y-85669463D01*
X122244180Y-85610498D01*
X122124482Y-85574188D01*
X122000000Y-85561928D01*
X120300000Y-85561928D01*
X120175518Y-85574188D01*
X120055820Y-85610498D01*
X119945506Y-85669463D01*
X119848815Y-85748815D01*
X119769463Y-85845506D01*
X119710498Y-85955820D01*
X119674188Y-86075518D01*
X119661928Y-86200000D01*
X110360000Y-86200000D01*
X110360000Y-84971269D01*
X120408336Y-84971269D01*
X120467797Y-85205037D01*
X120706242Y-85315934D01*
X120961740Y-85378183D01*
X121224473Y-85389390D01*
X121484344Y-85349125D01*
X121731366Y-85258935D01*
X121832203Y-85205037D01*
X121891664Y-84971269D01*
X121150000Y-84229605D01*
X120408336Y-84971269D01*
X110360000Y-84971269D01*
X110360000Y-84124473D01*
X119810610Y-84124473D01*
X119850875Y-84384344D01*
X119941065Y-84631366D01*
X119994963Y-84732203D01*
X120228731Y-84791664D01*
X120970395Y-84050000D01*
X120228731Y-83308336D01*
X119994963Y-83367797D01*
X119884066Y-83606242D01*
X119821817Y-83861740D01*
X119810610Y-84124473D01*
X110360000Y-84124473D01*
X110360000Y-83128731D01*
X120408336Y-83128731D01*
X121150000Y-83870395D01*
X121891664Y-83128731D01*
X121832203Y-82894963D01*
X121593758Y-82784066D01*
X121338260Y-82721817D01*
X121075527Y-82710610D01*
X120815656Y-82750875D01*
X120568634Y-82841065D01*
X120467797Y-82894963D01*
X120408336Y-83128731D01*
X110360000Y-83128731D01*
X110360000Y-78110000D01*
X110361928Y-78110000D01*
X110361928Y-79810000D01*
X110374188Y-79934482D01*
X110410498Y-80054180D01*
X110469463Y-80164494D01*
X110548815Y-80261185D01*
X110645506Y-80340537D01*
X110755820Y-80399502D01*
X110875518Y-80435812D01*
X111000000Y-80448072D01*
X112700000Y-80448072D01*
X112824482Y-80435812D01*
X112944180Y-80399502D01*
X113054494Y-80340537D01*
X113151185Y-80261185D01*
X113230537Y-80164494D01*
X113289502Y-80054180D01*
X113325812Y-79934482D01*
X113338072Y-79810000D01*
X113338072Y-78110000D01*
X113325812Y-77985518D01*
X113289502Y-77865820D01*
X113262073Y-77814505D01*
X119814759Y-71261820D01*
X119814774Y-71261898D01*
X119892795Y-71450256D01*
X120006063Y-71619774D01*
X120050000Y-71663711D01*
X120050001Y-78552668D01*
X120046324Y-78590000D01*
X120060998Y-78738985D01*
X120104454Y-78882246D01*
X120175026Y-79014276D01*
X120234710Y-79087000D01*
X120270000Y-79130001D01*
X120298998Y-79153799D01*
X120335000Y-79189801D01*
X120335000Y-79251939D01*
X120374774Y-79451898D01*
X120452795Y-79640256D01*
X120566063Y-79809774D01*
X120710226Y-79953937D01*
X120879744Y-80067205D01*
X121068102Y-80145226D01*
X121268061Y-80185000D01*
X121471939Y-80185000D01*
X121671898Y-80145226D01*
X121860256Y-80067205D01*
X122029774Y-79953937D01*
X122073711Y-79910000D01*
X125566289Y-79910000D01*
X125610226Y-79953937D01*
X125779744Y-80067205D01*
X125968102Y-80145226D01*
X126168061Y-80185000D01*
X126371939Y-80185000D01*
X126571898Y-80145226D01*
X126760256Y-80067205D01*
X126929774Y-79953937D01*
X127073937Y-79809774D01*
X127187205Y-79640256D01*
X127190001Y-79633506D01*
X127190001Y-79882668D01*
X127186324Y-79920000D01*
X127200998Y-80068985D01*
X127244454Y-80212246D01*
X127315026Y-80344276D01*
X127386201Y-80431002D01*
X127410000Y-80460001D01*
X127438998Y-80483799D01*
X129430000Y-82474803D01*
X129430000Y-82952225D01*
X129338987Y-83013038D01*
X129153038Y-83198987D01*
X129006939Y-83417641D01*
X128918379Y-83631444D01*
X128858935Y-83468634D01*
X128805037Y-83367797D01*
X128571269Y-83308336D01*
X127829605Y-84050000D01*
X128571269Y-84791664D01*
X128805037Y-84732203D01*
X128915934Y-84493758D01*
X128920706Y-84474173D01*
X129006939Y-84682359D01*
X129153038Y-84901013D01*
X129338987Y-85086962D01*
X129430000Y-85147775D01*
X129430001Y-85561928D01*
X129340000Y-85561928D01*
X129215518Y-85574188D01*
X129095820Y-85610498D01*
X128985506Y-85669463D01*
X128888815Y-85748815D01*
X128809463Y-85845506D01*
X128750498Y-85955820D01*
X128714188Y-86075518D01*
X128701928Y-86200000D01*
X128701928Y-87900000D01*
X128714188Y-88024482D01*
X128750498Y-88144180D01*
X128809463Y-88254494D01*
X128888815Y-88351185D01*
X128985506Y-88430537D01*
X129095820Y-88489502D01*
X129215518Y-88525812D01*
X129340000Y-88538072D01*
X131040000Y-88538072D01*
X131164482Y-88525812D01*
X131284180Y-88489502D01*
X131394494Y-88430537D01*
X131491185Y-88351185D01*
X131570537Y-88254494D01*
X131629502Y-88144180D01*
X131665812Y-88024482D01*
X131678072Y-87900000D01*
X131678072Y-86200000D01*
X131665812Y-86075518D01*
X131629502Y-85955820D01*
X131570537Y-85845506D01*
X131491185Y-85748815D01*
X131394494Y-85669463D01*
X131284180Y-85610498D01*
X131164482Y-85574188D01*
X131040000Y-85561928D01*
X130950000Y-85561928D01*
X130950000Y-85147775D01*
X131041013Y-85086962D01*
X131226962Y-84901013D01*
X131373061Y-84682359D01*
X131473696Y-84439405D01*
X131525000Y-84181486D01*
X131525000Y-83918514D01*
X131473696Y-83660595D01*
X131373061Y-83417641D01*
X131226962Y-83198987D01*
X131041013Y-83013038D01*
X130950000Y-82952225D01*
X130950000Y-82197322D01*
X130952114Y-82175861D01*
X130998061Y-82185000D01*
X131201939Y-82185000D01*
X131401898Y-82145226D01*
X131590256Y-82067205D01*
X131759774Y-81953937D01*
X131903937Y-81809774D01*
X132017205Y-81640256D01*
X132095226Y-81451898D01*
X132135000Y-81251939D01*
X132135000Y-81048061D01*
X132095226Y-80848102D01*
X132017205Y-80659744D01*
X131903937Y-80490226D01*
X131759774Y-80346063D01*
X131590256Y-80232795D01*
X131401898Y-80154774D01*
X131201939Y-80115000D01*
X131139802Y-80115000D01*
X130834802Y-79810000D01*
X136011928Y-79810000D01*
X136024188Y-79934482D01*
X136060498Y-80054180D01*
X136119463Y-80164494D01*
X136198815Y-80261185D01*
X136295506Y-80340537D01*
X136405820Y-80399502D01*
X136525518Y-80435812D01*
X136650000Y-80448072D01*
X137214250Y-80445000D01*
X137373000Y-80286250D01*
X137373000Y-79087000D01*
X137627000Y-79087000D01*
X137627000Y-80286250D01*
X137785750Y-80445000D01*
X138350000Y-80448072D01*
X138474482Y-80435812D01*
X138594180Y-80399502D01*
X138704494Y-80340537D01*
X138801185Y-80261185D01*
X138880537Y-80164494D01*
X138939502Y-80054180D01*
X138975812Y-79934482D01*
X138988072Y-79810000D01*
X138985000Y-79245750D01*
X138826250Y-79087000D01*
X137627000Y-79087000D01*
X137373000Y-79087000D01*
X136173750Y-79087000D01*
X136015000Y-79245750D01*
X136011928Y-79810000D01*
X130834802Y-79810000D01*
X129560000Y-78535199D01*
X129560000Y-78110000D01*
X136011928Y-78110000D01*
X136015000Y-78674250D01*
X136173750Y-78833000D01*
X137373000Y-78833000D01*
X137373000Y-77633750D01*
X137627000Y-77633750D01*
X137627000Y-78833000D01*
X138826250Y-78833000D01*
X138985000Y-78674250D01*
X138988072Y-78110000D01*
X138975812Y-77985518D01*
X138939502Y-77865820D01*
X138880537Y-77755506D01*
X138801185Y-77658815D01*
X138704494Y-77579463D01*
X138594180Y-77520498D01*
X138474482Y-77484188D01*
X138350000Y-77471928D01*
X137785750Y-77475000D01*
X137627000Y-77633750D01*
X137373000Y-77633750D01*
X137214250Y-77475000D01*
X136650000Y-77471928D01*
X136525518Y-77484188D01*
X136405820Y-77520498D01*
X136295506Y-77579463D01*
X136198815Y-77658815D01*
X136119463Y-77755506D01*
X136060498Y-77865820D01*
X136024188Y-77985518D01*
X136011928Y-78110000D01*
X129560000Y-78110000D01*
X129560000Y-77153711D01*
X129603937Y-77109774D01*
X129717205Y-76940256D01*
X129795226Y-76751898D01*
X129835000Y-76551939D01*
X129835000Y-76348061D01*
X129795226Y-76148102D01*
X129717205Y-75959744D01*
X129603937Y-75790226D01*
X129459774Y-75646063D01*
X129290256Y-75532795D01*
X129101898Y-75454774D01*
X128901939Y-75415000D01*
X128698061Y-75415000D01*
X128498102Y-75454774D01*
X128309744Y-75532795D01*
X128140226Y-75646063D01*
X127996063Y-75790226D01*
X127882795Y-75959744D01*
X127804774Y-76148102D01*
X127765000Y-76348061D01*
X127765000Y-76531522D01*
X127648102Y-76554774D01*
X127459744Y-76632795D01*
X127290226Y-76746063D01*
X127146063Y-76890226D01*
X127032795Y-77059744D01*
X126954774Y-77248102D01*
X126915000Y-77448061D01*
X126915000Y-77651939D01*
X126954774Y-77851898D01*
X127032795Y-78040256D01*
X127146063Y-78209774D01*
X127190000Y-78253711D01*
X127190000Y-78666493D01*
X127187205Y-78659744D01*
X127073937Y-78490226D01*
X126929774Y-78346063D01*
X126760256Y-78232795D01*
X126571898Y-78154774D01*
X126371939Y-78115000D01*
X126168061Y-78115000D01*
X125968102Y-78154774D01*
X125779744Y-78232795D01*
X125610226Y-78346063D01*
X125566289Y-78390000D01*
X122073711Y-78390000D01*
X122029774Y-78346063D01*
X121860256Y-78232795D01*
X121671898Y-78154774D01*
X121570000Y-78134505D01*
X121570000Y-73559527D01*
X121698061Y-73585000D01*
X121901939Y-73585000D01*
X122101898Y-73545226D01*
X122290256Y-73467205D01*
X122459774Y-73353937D01*
X122494455Y-73319256D01*
X122690001Y-73514803D01*
X122690000Y-75778362D01*
X122686324Y-75815685D01*
X122690000Y-75853007D01*
X122690000Y-75853017D01*
X122700997Y-75964670D01*
X122744454Y-76107931D01*
X122815026Y-76239961D01*
X122854871Y-76288511D01*
X122909999Y-76355686D01*
X122939003Y-76379489D01*
X122992911Y-76433397D01*
X123016714Y-76462401D01*
X123132439Y-76557374D01*
X123264468Y-76627946D01*
X123407676Y-76671387D01*
X123462626Y-76726337D01*
X123632144Y-76839605D01*
X123820502Y-76917626D01*
X124020461Y-76957400D01*
X124224339Y-76957400D01*
X124424298Y-76917626D01*
X124612656Y-76839605D01*
X124782174Y-76726337D01*
X124926337Y-76582174D01*
X125039605Y-76412656D01*
X125117626Y-76224298D01*
X125157400Y-76024339D01*
X125157400Y-75820461D01*
X125117626Y-75620502D01*
X125039605Y-75432144D01*
X124926337Y-75262626D01*
X124782174Y-75118463D01*
X124612656Y-75005195D01*
X124424298Y-74927174D01*
X124224339Y-74887400D01*
X124210000Y-74887400D01*
X124210000Y-73237323D01*
X124213676Y-73200000D01*
X124210000Y-73162677D01*
X124210000Y-73162667D01*
X124199003Y-73051014D01*
X124192629Y-73030000D01*
X136011928Y-73030000D01*
X136011928Y-74730000D01*
X136024188Y-74854482D01*
X136060498Y-74974180D01*
X136119463Y-75084494D01*
X136198815Y-75181185D01*
X136295506Y-75260537D01*
X136405820Y-75319502D01*
X136525518Y-75355812D01*
X136650000Y-75368072D01*
X138350000Y-75368072D01*
X138474482Y-75355812D01*
X138594180Y-75319502D01*
X138704494Y-75260537D01*
X138801185Y-75181185D01*
X138880537Y-75084494D01*
X138939502Y-74974180D01*
X138975812Y-74854482D01*
X138988072Y-74730000D01*
X138988072Y-73030000D01*
X138975812Y-72905518D01*
X138939502Y-72785820D01*
X138880537Y-72675506D01*
X138801185Y-72578815D01*
X138704494Y-72499463D01*
X138594180Y-72440498D01*
X138474482Y-72404188D01*
X138350000Y-72391928D01*
X136650000Y-72391928D01*
X136525518Y-72404188D01*
X136405820Y-72440498D01*
X136295506Y-72499463D01*
X136198815Y-72578815D01*
X136119463Y-72675506D01*
X136060498Y-72785820D01*
X136024188Y-72905518D01*
X136011928Y-73030000D01*
X124192629Y-73030000D01*
X124155546Y-72907753D01*
X124084974Y-72775724D01*
X123990001Y-72659999D01*
X123961002Y-72636200D01*
X123363803Y-72039002D01*
X123340001Y-72009999D01*
X123224276Y-71915026D01*
X123092247Y-71844454D01*
X122948986Y-71800997D01*
X122837333Y-71790000D01*
X122837322Y-71790000D01*
X122800000Y-71786324D01*
X122762678Y-71790000D01*
X122560000Y-71790000D01*
X122560000Y-70914323D01*
X122563676Y-70876998D01*
X122560000Y-70839673D01*
X122560000Y-70839665D01*
X122549003Y-70728012D01*
X122505546Y-70584751D01*
X122434974Y-70452722D01*
X122340001Y-70336997D01*
X122311002Y-70313198D01*
X121721804Y-69724001D01*
X121698002Y-69694998D01*
X121582277Y-69600025D01*
X121450248Y-69529453D01*
X121306987Y-69485996D01*
X121195334Y-69474999D01*
X121195323Y-69474999D01*
X121158001Y-69471323D01*
X121120679Y-69474999D01*
X119804101Y-69474999D01*
X119766778Y-69471323D01*
X119729455Y-69474999D01*
X119729445Y-69474999D01*
X119617792Y-69485996D01*
X119474531Y-69529453D01*
X119342502Y-69600025D01*
X119226777Y-69694998D01*
X119202979Y-69723996D01*
X111455048Y-77471928D01*
X111000000Y-77471928D01*
X110875518Y-77484188D01*
X110755820Y-77520498D01*
X110645506Y-77579463D01*
X110548815Y-77658815D01*
X110469463Y-77755506D01*
X110410498Y-77865820D01*
X110374188Y-77985518D01*
X110361928Y-78110000D01*
X110360000Y-78110000D01*
X110360000Y-74730000D01*
X110361928Y-74730000D01*
X110374188Y-74854482D01*
X110410498Y-74974180D01*
X110469463Y-75084494D01*
X110548815Y-75181185D01*
X110645506Y-75260537D01*
X110755820Y-75319502D01*
X110875518Y-75355812D01*
X111000000Y-75368072D01*
X111564250Y-75365000D01*
X111723000Y-75206250D01*
X111723000Y-74007000D01*
X111977000Y-74007000D01*
X111977000Y-75206250D01*
X112135750Y-75365000D01*
X112700000Y-75368072D01*
X112824482Y-75355812D01*
X112944180Y-75319502D01*
X113054494Y-75260537D01*
X113151185Y-75181185D01*
X113230537Y-75084494D01*
X113289502Y-74974180D01*
X113325812Y-74854482D01*
X113338072Y-74730000D01*
X113335000Y-74165750D01*
X113176250Y-74007000D01*
X111977000Y-74007000D01*
X111723000Y-74007000D01*
X110523750Y-74007000D01*
X110365000Y-74165750D01*
X110361928Y-74730000D01*
X110360000Y-74730000D01*
X110360000Y-73030000D01*
X110361928Y-73030000D01*
X110365000Y-73594250D01*
X110523750Y-73753000D01*
X111723000Y-73753000D01*
X111723000Y-72553750D01*
X111977000Y-72553750D01*
X111977000Y-73753000D01*
X113176250Y-73753000D01*
X113335000Y-73594250D01*
X113338072Y-73030000D01*
X113325812Y-72905518D01*
X113289502Y-72785820D01*
X113230537Y-72675506D01*
X113151185Y-72578815D01*
X113054494Y-72499463D01*
X112944180Y-72440498D01*
X112824482Y-72404188D01*
X112700000Y-72391928D01*
X112135750Y-72395000D01*
X111977000Y-72553750D01*
X111723000Y-72553750D01*
X111564250Y-72395000D01*
X111000000Y-72391928D01*
X110875518Y-72404188D01*
X110755820Y-72440498D01*
X110645506Y-72499463D01*
X110548815Y-72578815D01*
X110469463Y-72675506D01*
X110410498Y-72785820D01*
X110374188Y-72905518D01*
X110361928Y-73030000D01*
X110360000Y-73030000D01*
X110360000Y-69453642D01*
X110390498Y-69554180D01*
X110449463Y-69664494D01*
X110528815Y-69761185D01*
X110625506Y-69840537D01*
X110735820Y-69899502D01*
X110855518Y-69935812D01*
X110980000Y-69948072D01*
X112680000Y-69948072D01*
X112804482Y-69935812D01*
X112924180Y-69899502D01*
X113034494Y-69840537D01*
X113131185Y-69761185D01*
X113210537Y-69664494D01*
X113269502Y-69554180D01*
X113305812Y-69434482D01*
X113318072Y-69310000D01*
X113318072Y-67950000D01*
X136011928Y-67950000D01*
X136011928Y-69650000D01*
X136024188Y-69774482D01*
X136060498Y-69894180D01*
X136119463Y-70004494D01*
X136198815Y-70101185D01*
X136295506Y-70180537D01*
X136405820Y-70239502D01*
X136525518Y-70275812D01*
X136650000Y-70288072D01*
X138350000Y-70288072D01*
X138474482Y-70275812D01*
X138594180Y-70239502D01*
X138704494Y-70180537D01*
X138801185Y-70101185D01*
X138880537Y-70004494D01*
X138939502Y-69894180D01*
X138975812Y-69774482D01*
X138988072Y-69650000D01*
X138988072Y-67950000D01*
X138975812Y-67825518D01*
X138939502Y-67705820D01*
X138880537Y-67595506D01*
X138801185Y-67498815D01*
X138704494Y-67419463D01*
X138594180Y-67360498D01*
X138474482Y-67324188D01*
X138350000Y-67311928D01*
X136650000Y-67311928D01*
X136525518Y-67324188D01*
X136405820Y-67360498D01*
X136295506Y-67419463D01*
X136198815Y-67498815D01*
X136119463Y-67595506D01*
X136060498Y-67705820D01*
X136024188Y-67825518D01*
X136011928Y-67950000D01*
X113318072Y-67950000D01*
X113318072Y-67610000D01*
X113305812Y-67485518D01*
X113269502Y-67365820D01*
X113210537Y-67255506D01*
X113131185Y-67158815D01*
X113034494Y-67079463D01*
X112924180Y-67020498D01*
X112804482Y-66984188D01*
X112680000Y-66971928D01*
X110980000Y-66971928D01*
X110855518Y-66984188D01*
X110735820Y-67020498D01*
X110625506Y-67079463D01*
X110528815Y-67158815D01*
X110449463Y-67255506D01*
X110390498Y-67365820D01*
X110360000Y-67466358D01*
X110360000Y-64860000D01*
X139040001Y-64860000D01*
X139040000Y-88540000D01*
M02*
