M48
; DRILL file {KiCad (5.1.6)-1} date 05/26/20 15:23:36
; FORMAT={-:-/ absolute / inch / decimal}
; #@! TF.CreationDate,2020-05-26T15:23:36+09:00
; #@! TF.GenerationSoftware,Kicad,Pcbnew,(5.1.6)-1
; #@! TF.FileFunction,Plated,1,2,PTH
FMAT,2
INCH
T1C0.0118
T2C0.0157
T3C0.0315
T4C0.0394
%
G90
G05
T1
X4.9833Y-2.9912
T2
X4.7563Y-2.7937
X4.7783Y-3.1161
X4.7953Y-2.8563
X4.8867Y-2.9891
X4.9713Y-3.1161
X5.0374Y-3.0531
X5.0709Y-3.0098
X5.0728Y-2.5882
X5.1614Y-3.1949
X5.2366Y-2.5882
T3
X4.7697Y-3.3091
X4.8697Y-3.3091
X5.0256Y-3.3091
X5.1256Y-3.3091
T4
X4.7697Y-3.4272
X5.1256Y-3.4272
X5.4134Y-2.7087
X4.4028Y-2.6953
X4.4035Y-2.9087
X4.4035Y-3.1087
X5.4134Y-2.9087
X5.4134Y-3.1087
T0
M30
