G04 #@! TF.GenerationSoftware,KiCad,Pcbnew,(5.1.6)-1*
G04 #@! TF.CreationDate,2020-05-26T15:20:33+09:00*
G04 #@! TF.ProjectId,mic5332,6d696335-3333-4322-9e6b-696361645f70,rev?*
G04 #@! TF.SameCoordinates,Original*
G04 #@! TF.FileFunction,Paste,Top*
G04 #@! TF.FilePolarity,Positive*
%FSLAX46Y46*%
G04 Gerber Fmt 4.6, Leading zero omitted, Abs format (unit mm)*
G04 Created by KiCad (PCBNEW (5.1.6)-1) date 2020-05-26 15:20:33*
%MOMM*%
%LPD*%
G01*
G04 APERTURE LIST*
%ADD10R,0.660400X1.244600*%
%ADD11R,0.711200X0.203200*%
G04 APERTURE END LIST*
G36*
G01*
X116337500Y-68575000D02*
X116812500Y-68575000D01*
G75*
G02*
X117050000Y-68812500I0J-237500D01*
G01*
X117050000Y-69387500D01*
G75*
G02*
X116812500Y-69625000I-237500J0D01*
G01*
X116337500Y-69625000D01*
G75*
G02*
X116100000Y-69387500I0J237500D01*
G01*
X116100000Y-68812500D01*
G75*
G02*
X116337500Y-68575000I237500J0D01*
G01*
G37*
G36*
G01*
X116337500Y-70325000D02*
X116812500Y-70325000D01*
G75*
G02*
X117050000Y-70562500I0J-237500D01*
G01*
X117050000Y-71137500D01*
G75*
G02*
X116812500Y-71375000I-237500J0D01*
G01*
X116337500Y-71375000D01*
G75*
G02*
X116100000Y-71137500I0J237500D01*
G01*
X116100000Y-70562500D01*
G75*
G02*
X116337500Y-70325000I237500J0D01*
G01*
G37*
G36*
G01*
X117852500Y-70330000D02*
X118327500Y-70330000D01*
G75*
G02*
X118565000Y-70567500I0J-237500D01*
G01*
X118565000Y-71142500D01*
G75*
G02*
X118327500Y-71380000I-237500J0D01*
G01*
X117852500Y-71380000D01*
G75*
G02*
X117615000Y-71142500I0J237500D01*
G01*
X117615000Y-70567500D01*
G75*
G02*
X117852500Y-70330000I237500J0D01*
G01*
G37*
G36*
G01*
X117852500Y-68580000D02*
X118327500Y-68580000D01*
G75*
G02*
X118565000Y-68817500I0J-237500D01*
G01*
X118565000Y-69392500D01*
G75*
G02*
X118327500Y-69630000I-237500J0D01*
G01*
X117852500Y-69630000D01*
G75*
G02*
X117615000Y-69392500I0J237500D01*
G01*
X117615000Y-68817500D01*
G75*
G02*
X117852500Y-68580000I237500J0D01*
G01*
G37*
G36*
G01*
X132672500Y-81380000D02*
X132327500Y-81380000D01*
G75*
G02*
X132180000Y-81232500I0J147500D01*
G01*
X132180000Y-80937500D01*
G75*
G02*
X132327500Y-80790000I147500J0D01*
G01*
X132672500Y-80790000D01*
G75*
G02*
X132820000Y-80937500I0J-147500D01*
G01*
X132820000Y-81232500D01*
G75*
G02*
X132672500Y-81380000I-147500J0D01*
G01*
G37*
G36*
G01*
X132672500Y-80410000D02*
X132327500Y-80410000D01*
G75*
G02*
X132180000Y-80262500I0J147500D01*
G01*
X132180000Y-79967500D01*
G75*
G02*
X132327500Y-79820000I147500J0D01*
G01*
X132672500Y-79820000D01*
G75*
G02*
X132820000Y-79967500I0J-147500D01*
G01*
X132820000Y-80262500D01*
G75*
G02*
X132672500Y-80410000I-147500J0D01*
G01*
G37*
G36*
G01*
X130392500Y-76625000D02*
X130867500Y-76625000D01*
G75*
G02*
X131105000Y-76862500I0J-237500D01*
G01*
X131105000Y-77437500D01*
G75*
G02*
X130867500Y-77675000I-237500J0D01*
G01*
X130392500Y-77675000D01*
G75*
G02*
X130155000Y-77437500I0J237500D01*
G01*
X130155000Y-76862500D01*
G75*
G02*
X130392500Y-76625000I237500J0D01*
G01*
G37*
G36*
G01*
X130392500Y-74875000D02*
X130867500Y-74875000D01*
G75*
G02*
X131105000Y-75112500I0J-237500D01*
G01*
X131105000Y-75687500D01*
G75*
G02*
X130867500Y-75925000I-237500J0D01*
G01*
X130392500Y-75925000D01*
G75*
G02*
X130155000Y-75687500I0J237500D01*
G01*
X130155000Y-75112500D01*
G75*
G02*
X130392500Y-74875000I237500J0D01*
G01*
G37*
G36*
G01*
X131902500Y-74875000D02*
X132377500Y-74875000D01*
G75*
G02*
X132615000Y-75112500I0J-237500D01*
G01*
X132615000Y-75687500D01*
G75*
G02*
X132377500Y-75925000I-237500J0D01*
G01*
X131902500Y-75925000D01*
G75*
G02*
X131665000Y-75687500I0J237500D01*
G01*
X131665000Y-75112500D01*
G75*
G02*
X131902500Y-74875000I237500J0D01*
G01*
G37*
G36*
G01*
X131902500Y-76625000D02*
X132377500Y-76625000D01*
G75*
G02*
X132615000Y-76862500I0J-237500D01*
G01*
X132615000Y-77437500D01*
G75*
G02*
X132377500Y-77675000I-237500J0D01*
G01*
X131902500Y-77675000D01*
G75*
G02*
X131665000Y-77437500I0J237500D01*
G01*
X131665000Y-76862500D01*
G75*
G02*
X131902500Y-76625000I237500J0D01*
G01*
G37*
G36*
G01*
X133419999Y-76830000D02*
X134320001Y-76830000D01*
G75*
G02*
X134570000Y-77079999I0J-249999D01*
G01*
X134570000Y-77730001D01*
G75*
G02*
X134320001Y-77980000I-249999J0D01*
G01*
X133419999Y-77980000D01*
G75*
G02*
X133170000Y-77730001I0J249999D01*
G01*
X133170000Y-77079999D01*
G75*
G02*
X133419999Y-76830000I249999J0D01*
G01*
G37*
G36*
G01*
X133419999Y-74780000D02*
X134320001Y-74780000D01*
G75*
G02*
X134570000Y-75029999I0J-249999D01*
G01*
X134570000Y-75680001D01*
G75*
G02*
X134320001Y-75930000I-249999J0D01*
G01*
X133419999Y-75930000D01*
G75*
G02*
X133170000Y-75680001I0J249999D01*
G01*
X133170000Y-75029999D01*
G75*
G02*
X133419999Y-74780000I249999J0D01*
G01*
G37*
G36*
G01*
X129077500Y-68690000D02*
X128602500Y-68690000D01*
G75*
G02*
X128365000Y-68452500I0J237500D01*
G01*
X128365000Y-67877500D01*
G75*
G02*
X128602500Y-67640000I237500J0D01*
G01*
X129077500Y-67640000D01*
G75*
G02*
X129315000Y-67877500I0J-237500D01*
G01*
X129315000Y-68452500D01*
G75*
G02*
X129077500Y-68690000I-237500J0D01*
G01*
G37*
G36*
G01*
X129077500Y-70440000D02*
X128602500Y-70440000D01*
G75*
G02*
X128365000Y-70202500I0J237500D01*
G01*
X128365000Y-69627500D01*
G75*
G02*
X128602500Y-69390000I237500J0D01*
G01*
X129077500Y-69390000D01*
G75*
G02*
X129315000Y-69627500I0J-237500D01*
G01*
X129315000Y-70202500D01*
G75*
G02*
X129077500Y-70440000I-237500J0D01*
G01*
G37*
G36*
G01*
X130587500Y-70440000D02*
X130112500Y-70440000D01*
G75*
G02*
X129875000Y-70202500I0J237500D01*
G01*
X129875000Y-69627500D01*
G75*
G02*
X130112500Y-69390000I237500J0D01*
G01*
X130587500Y-69390000D01*
G75*
G02*
X130825000Y-69627500I0J-237500D01*
G01*
X130825000Y-70202500D01*
G75*
G02*
X130587500Y-70440000I-237500J0D01*
G01*
G37*
G36*
G01*
X130587500Y-68690000D02*
X130112500Y-68690000D01*
G75*
G02*
X129875000Y-68452500I0J237500D01*
G01*
X129875000Y-67877500D01*
G75*
G02*
X130112500Y-67640000I237500J0D01*
G01*
X130587500Y-67640000D01*
G75*
G02*
X130825000Y-67877500I0J-237500D01*
G01*
X130825000Y-68452500D01*
G75*
G02*
X130587500Y-68690000I-237500J0D01*
G01*
G37*
G36*
G01*
X132530001Y-70650000D02*
X131629999Y-70650000D01*
G75*
G02*
X131380000Y-70400001I0J249999D01*
G01*
X131380000Y-69749999D01*
G75*
G02*
X131629999Y-69500000I249999J0D01*
G01*
X132530001Y-69500000D01*
G75*
G02*
X132780000Y-69749999I0J-249999D01*
G01*
X132780000Y-70400001D01*
G75*
G02*
X132530001Y-70650000I-249999J0D01*
G01*
G37*
G36*
G01*
X132530001Y-68600000D02*
X131629999Y-68600000D01*
G75*
G02*
X131380000Y-68350001I0J249999D01*
G01*
X131380000Y-67699999D01*
G75*
G02*
X131629999Y-67450000I249999J0D01*
G01*
X132530001Y-67450000D01*
G75*
G02*
X132780000Y-67699999I0J-249999D01*
G01*
X132780000Y-68350001D01*
G75*
G02*
X132530001Y-68600000I-249999J0D01*
G01*
G37*
G36*
G01*
X119300000Y-77057500D02*
X119300000Y-76582500D01*
G75*
G02*
X119537500Y-76345000I237500J0D01*
G01*
X120112500Y-76345000D01*
G75*
G02*
X120350000Y-76582500I0J-237500D01*
G01*
X120350000Y-77057500D01*
G75*
G02*
X120112500Y-77295000I-237500J0D01*
G01*
X119537500Y-77295000D01*
G75*
G02*
X119300000Y-77057500I0J237500D01*
G01*
G37*
G36*
G01*
X121050000Y-77057500D02*
X121050000Y-76582500D01*
G75*
G02*
X121287500Y-76345000I237500J0D01*
G01*
X121862500Y-76345000D01*
G75*
G02*
X122100000Y-76582500I0J-237500D01*
G01*
X122100000Y-77057500D01*
G75*
G02*
X121862500Y-77295000I-237500J0D01*
G01*
X121287500Y-77295000D01*
G75*
G02*
X121050000Y-77057500I0J237500D01*
G01*
G37*
G36*
G01*
X127750000Y-80937500D02*
X127750000Y-80462500D01*
G75*
G02*
X127987500Y-80225000I237500J0D01*
G01*
X128562500Y-80225000D01*
G75*
G02*
X128800000Y-80462500I0J-237500D01*
G01*
X128800000Y-80937500D01*
G75*
G02*
X128562500Y-81175000I-237500J0D01*
G01*
X127987500Y-81175000D01*
G75*
G02*
X127750000Y-80937500I0J237500D01*
G01*
G37*
G36*
G01*
X126000000Y-80937500D02*
X126000000Y-80462500D01*
G75*
G02*
X126237500Y-80225000I237500J0D01*
G01*
X126812500Y-80225000D01*
G75*
G02*
X127050000Y-80462500I0J-237500D01*
G01*
X127050000Y-80937500D01*
G75*
G02*
X126812500Y-81175000I-237500J0D01*
G01*
X126237500Y-81175000D01*
G75*
G02*
X126000000Y-80937500I0J237500D01*
G01*
G37*
G36*
G01*
X121100000Y-80937500D02*
X121100000Y-80462500D01*
G75*
G02*
X121337500Y-80225000I237500J0D01*
G01*
X121912500Y-80225000D01*
G75*
G02*
X122150000Y-80462500I0J-237500D01*
G01*
X122150000Y-80937500D01*
G75*
G02*
X121912500Y-81175000I-237500J0D01*
G01*
X121337500Y-81175000D01*
G75*
G02*
X121100000Y-80937500I0J237500D01*
G01*
G37*
G36*
G01*
X122850000Y-80937500D02*
X122850000Y-80462500D01*
G75*
G02*
X123087500Y-80225000I237500J0D01*
G01*
X123662500Y-80225000D01*
G75*
G02*
X123900000Y-80462500I0J-237500D01*
G01*
X123900000Y-80937500D01*
G75*
G02*
X123662500Y-81175000I-237500J0D01*
G01*
X123087500Y-81175000D01*
G75*
G02*
X122850000Y-80937500I0J237500D01*
G01*
G37*
G36*
G01*
X122110000Y-73542500D02*
X122110000Y-74017500D01*
G75*
G02*
X121872500Y-74255000I-237500J0D01*
G01*
X121297500Y-74255000D01*
G75*
G02*
X121060000Y-74017500I0J237500D01*
G01*
X121060000Y-73542500D01*
G75*
G02*
X121297500Y-73305000I237500J0D01*
G01*
X121872500Y-73305000D01*
G75*
G02*
X122110000Y-73542500I0J-237500D01*
G01*
G37*
G36*
G01*
X120360000Y-73542500D02*
X120360000Y-74017500D01*
G75*
G02*
X120122500Y-74255000I-237500J0D01*
G01*
X119547500Y-74255000D01*
G75*
G02*
X119310000Y-74017500I0J237500D01*
G01*
X119310000Y-73542500D01*
G75*
G02*
X119547500Y-73305000I237500J0D01*
G01*
X120122500Y-73305000D01*
G75*
G02*
X120360000Y-73542500I0J-237500D01*
G01*
G37*
G36*
G01*
X121050000Y-75537500D02*
X121050000Y-75062500D01*
G75*
G02*
X121287500Y-74825000I237500J0D01*
G01*
X121862500Y-74825000D01*
G75*
G02*
X122100000Y-75062500I0J-237500D01*
G01*
X122100000Y-75537500D01*
G75*
G02*
X121862500Y-75775000I-237500J0D01*
G01*
X121287500Y-75775000D01*
G75*
G02*
X121050000Y-75537500I0J237500D01*
G01*
G37*
G36*
G01*
X119300000Y-75537500D02*
X119300000Y-75062500D01*
G75*
G02*
X119537500Y-74825000I237500J0D01*
G01*
X120112500Y-74825000D01*
G75*
G02*
X120350000Y-75062500I0J-237500D01*
G01*
X120350000Y-75537500D01*
G75*
G02*
X120112500Y-75775000I-237500J0D01*
G01*
X119537500Y-75775000D01*
G75*
G02*
X119300000Y-75537500I0J237500D01*
G01*
G37*
D10*
X126576400Y-75672400D03*
D11*
X127554300Y-74922399D03*
X127554300Y-75422400D03*
X127554300Y-75922400D03*
X127554300Y-76422401D03*
X125598500Y-76422401D03*
X125598500Y-75922400D03*
X125598500Y-75422400D03*
X125598500Y-74922399D03*
M02*
